<mxfile host="app.diagrams.net" modified="2023-03-08T12:11:51.009Z" agent="5.0 (Macintosh; Intel Mac OS X 10_15_7) AppleWebKit/537.36 (KHTML, like Gecko) Chrome/110.0.0.0 Safari/537.36" etag="EB6quzx7MB6mJQWJZ5hR" version="21.0.2" type="github">
  <diagram id="lUdaiO9vyYA_eTEFXgUp" name="第 1 页">
    <mxGraphModel dx="3754" dy="397" grid="1" gridSize="10" guides="1" tooltips="1" connect="1" arrows="1" fold="1" page="1" pageScale="1" pageWidth="827" pageHeight="1169" math="0" shadow="0">
      <root>
        <mxCell id="0" />
        <mxCell id="1" parent="0" />
        <mxCell id="kVqAeBF7xhMF057fxwR8-1" value="" style="shape=image;verticalLabelPosition=bottom;labelBackgroundColor=default;verticalAlign=top;aspect=fixed;imageAspect=0;image=data:image/png,iVBORw0KGgoAAAANSUhEUgAAAOAAAADhCAMAAADmr0l2AAAAq1BMVEX29vYnJjbw8PDy8vInJjf////4+Pju7u75+fklJDT8/PwjIjMAAB4AAB8AABwhIDEYFys6OUcAABgbGS0AABURDyYdHC4UEygKByIaGCw0M0EsKzsgHy/X19mAgIZmZW/i4uSTkpnLy86npqw9PElhYWtSUVxFRFCwsLRxcXmDhIqcnKINCyIGACLDw8eMjJJWVmCsrK8xLkC8u753dn8UEixKSlTZ2twzMz2m9OJvAAAVcklEQVR4nNVdB3viuhJ1k2TLgAHHJSaEFloIJLmkvP//y54KJLEkgw0u7Nm7u9/mJljjGU2zPEfTKga0MbaN4X72+jj/emL4mj++bvZTZANsw6qvXy2IcGg3GSX9bRD5oee6rkV+uV7oR/G2/99oskP4HxUSUungdLOI4yh0dUvXLfL7B+wfThjFwWIy1YDd9HKLA2I8fU5akaefgddtJ89TcjOaXnEh2ABtklaXae48XH+bbMb/kBoxGK77kZtHth8Zo/56CHDTK88FG+8WnTCX6lLw+4sdvn0tQjB9a53deDIsAq/zNgU3vhfBeN0Pi4t3hNcZjUHTMpyAbU+CC4zzL/yXiX2jdgo1MO0FV0nHECQ3aqe2/Xp3weaT4d293qIS8feyBPVxfC6/by5igH1Qivo4ws/9bfkaCJ5bTnnykTS19XpLOoRwFJ9ZsRt2oyBudTqtdpuUFvc+uR8n/W08up2NaKNl99RavW4cDOa0BBx+EwynpDicDz633ZNGHS3RjUhooyTMUAf5YhgEX5PdGABMKz8Cm5bAGAC02yy6cZitxzAZ34SZ2mM9UxNu9DlfjdWFO5EToP2o++JliRjq4xvQ4Qn5wtZyhsDJSo/IuPrKTO68G5CQ26dSvP58is/XsbQyHt1l2PhDghpOaqD2pJbP68yHpITNszxog+EoowIJe2blMpwEniv9pxMvp6BAM4mI+BUrK+T7t0Z7UuDxRXnfo03R0tXG776v+qzgo8GcBqxaqq2zfbugqIN4PG8rBLRas8YktId91T3vFFYfB8Szjqu4X/1hU64UJgrP4L1cXs6BoRdakojuoNRVF1jORyTLd/+Erkg/sPH1KX9md92IkeJ9S17L55t2lT3Z2jqQrbSzbyBng8ZA9uvBiCSb130sXst1s+s1EO/Bo2ygn+vr7zQEH7HkmrskVtQsosqDlhOUIR59Slban9btScGX5EHDZTlJB8RvUsj3nmrutOH9Vtoog7IKVGj2pLsXr2r1M9CWluC8DPPl1jlgf987gpXWHAzxSurBbN9LDFaKEBTMalQhhIkYIvxRqcFYSiIsosL6dqEt7UAnNMu9PBSirFXnLoRYcqHtsnMNPBXDkLusTUB72hFcQDgv24tDsBZjRWtXVyzEH8K1rfa49P0Bx2JSGpaQJ+W7tCEmad3n8tN9iCdCUmp1yr+NSuB34cpOF5UWAn8BDV1w1XVFCvAmuJjuayX1Gt4IN9Jd1lIXQnQnWOhnNaYDkdiRvKvFRiUL9asquMHzffpKUS02CtbCjd1Oi1URuVu59rfQZvPearBRqAnyuUn+GAjJL4P8ygmpJotqqOztqZCmRZtcdkNkg6ZBZDOhkdfl4pmwG+IaYj3eCFGwn2fnE8UZhmlCiDTTzG2kkj/rTqrfhGCUNlG3d3ZfUMUZRCqT/oE0BI28hgYWKRu1HqrfhFKl1D11WoAKAqlZEqE0AxIdmlTE3AIK5mLpTu4fvRRSihjvsgU02J4jmjMNqjWTqBCRr5q5vYw9bacF3FYeCe2dUMu3lI6Nfs0gW434EyobZDZKTdWkWzH31aAmbPi48hYwnqV7656qSoMmMkxE1Eb0pTEBqQpNGiFMWChrxUJaWL2XwUJ24QuP7yDVkUHFgVRdVFimNao4QyuckouXCyt/TCE60VT2BI/7i/gU6laoMZoGYl+HxaXTaHcrHQmrz2WEboUV74+hl2jIpH9Ag5smiXrUOhH5ImK77hL3YE/TW95Jivw0pPZTDNAcpM6kWe0hTVFYCGA6Y86EuE/qLllooNG94EX+XA6OO2kB3fxxgq+q6BUNodkVI2p/JHozuSDTH/2P37rc8eDE9dKH/OLc2ahB9kaBiHS8IBJMRkcs0EH2F03CaChgIa+c5xSakFfkaFvA391CjargBVH/j3CDJOkxwejHsA1naMahWignIEP8lRawfeaBPWTC0WyQxiStuIDjQ0/dsvSk10v0p+NHmezzYIFUOhfE/sgJAfktpaUKNU5o0g1YuB1tD1nulCQO/+uBCQipUzGJwzSu3nQihHT7RMFksowQ0vTQPNxxZlLFwATsDXSiO4JB72FhQ4Tg8UPLTxTBPKeAfPcb3HeS33xVxeSjEeC7RcSiovUcYqU9/YlKZRboQxSEqMGt9KjXYA6N7ROWPkHzEJyoW895FZY/mtT1m8TJJMkgcZiJOr3BE6zALv/gxB7kq0J0VSbthLCoQG80kazYqkySO2smi99w3HcSJ0n0ZMBsdDAomD0XBVxmeVGTJoEsHhjMtVHnycMeky1fegF5LmnSsI0QkRGi0GGbMOkxX+qEFVegQuak99HBnBBVG1kPokGKVZsaoiZaZDn0R1nFikg2ycpxsncT1yLxoZdwFertavtcEAnHNQN0yAa5kGzrcfUZhxXnBdWcRj+NuFqTla2sONeeXGvw3+9tlTd9qZBy0QFiLR5arpgsuWApIvUpBtt2eW83/0GWXfI8zGR9FUPDi4f0Ha22xBYbCMlC4xWLyctntqqf5KKIMfHAdti/NAHiTTHDFurBiktsoTM6SOaY7hTqWA4WZXADLQwmIDSRyS2A7l7ErjhJtywqLrGB8Kx18Ih/VkWTJ9Y6uOiT6T05xAYq6I95CyW25Qwq3YN4KTTv323WvWImxVR3sY+jmZ3JsnIT/fmcQzL6i36lrzagtI/Rox0Pf6xFd11qSEMDMpBY+kAkPNIKqjzdgcUm5csY0ZWVUZCxuKmwbyCkFpUeDRCbau7/aNAqI++Fmemz+FTSiSoUEAzSZ9bCdWn7IVP/ttDIqzLUw2EndTbWquMRLxwL28J/rCxQgFchUTvXsCgDEAhtIOe+qnIC2sJBEset4z0fLN7WyvyovRMeJovPCSq6rPgM2/uqSEAwT+e9NTxbYsAvwiGydjVuxh4Ku93ql3xmMwP4UYj14bwSyxHz0OoO5Aiwp0L+VI0K7W/pMnWdp8Q94ZSc91bB3gAjQYGOe+VbNbkhnSTRW+XvftlOKjrzpwBEXWGugzsoO0BB/CS+fl79AYQfgEfxuHFU9t0Fm1g68Fvfyy/2d0u4ulXyy0X2d198f6lV5+tL4pN6eiSvzOY9hEshxuthFY4sE/a39OpSqa9pgmfpJcKKsonMFUiH/vVteW9Lg5X0PnZYx1HRP4DjO+kdv86JQ12FgGnfJ/Xxln73XfMLhOBVMiKnNSxFQnscSC/PdmsfFwA1+RVeNypjAIw9tqS3B537yk8ZSsD7tmSk3uB6CTFSjP9o1/t6JAPEo3tpIZ537bwwPB7I8pEQ0cDEDhu58iAurzu9ZrNAPHQVA4KiZubm4L2Yz9B92FldkVGBfV9+Od9qNWCgfDmPill4Vufx0nlhNn4VX6ph+mtm0oPGjiGpxgEFX+OLlIjHb4rpbJbXa26uE0ShYoyP5UWz4gNXIFjdq26X09AG5MBT5cQ/d/s1LKZECMZvbcdSjN8pLT+6DHglvu16ELH1gUDuDgPExmtLOfzK6pf59volADPF0BWqiPvOK8pnqBCgSTtjdmB70viUSvAqVU4HdOPH77OD1SDG4+dAMXmH3aa4yYlVR4BX1awptkC/87Y6NRoP0sF483Y3a/bfTchHJRT7X7/wPqP5+xgL0w3pCXwiHBivRt2X7KHO7duQjzaIsiVk4ymTj9kUsfmUHAAANHz/6AVxmD121WpNbmYAPlgpMqw/S3X8YBvfL9fPrxuC1+f1MozjwFfNGPtFp2n/+Rdg2j0xKJTDcUO/GxF0/dAVp6lI98Tb7m5IPppmLdWe8EJET7c2p9mGH+3Sxhi7rbXZ+GBRCWAfXTkG/ogwXt2Me/kLgKR28EXwLpn9WD1sAKfPZQhoPTzutFsjnqBzbB+tdikK1HU/fvjIMz23NthgPFu270vyMXQ8pRO2ejfDAoPB8COSW7XXwg1e1tPTI57rALHN/WJ7IuG6AlbYXq4a5CuiF8bwPYlLZCkQ4cX6TGss4kOszSz1bOXy4AbhxmxGi1R7L5XY5i+YwwkGRIu1i2iDfa9q7R3hviSrmingIBi+tYuJ5zheGPoMYegpuv4nYDnxV51MNxAbH51cQd0icoVRELfj2E++5qPnR4rRfNF7iAmCiPhfeSyzCl5rjeqyUxuv/JMEGke4pM69T0aT2W6IIGA4FvQA2Oh7N5uMev428L08+vSDWT12CsaLc4UR0YkXtbvLx9WQdSpsxcIotQbj1Riunr/CdvRwXpXx17DqLBwS9c3ic9bp+PHL22aKcB52SCYmmm7eohf/3K724k3VRDBEfbGqwf4Lt9uynosxX0ImpbF7/q/TPSmjpb98fVepRAhWp9Vn+a3B69S+aK9QIYeTQcs/af8PrVl17tQ211k9Xobw5f5jehUzq43B9PHhZPJnteZGRckb/k6iLOskX/bbi715fYVjA23/tu2eoGXynWkVElLzzL6zVhR8DHE516UUKY/dz+yuqbudlR8SIX5UPUbicKL7CSqzPKUkqX6QvRlb67Ijom2+KVgEDgj88hN+iM2ZF2TmOdFXubRaeDxQErJQdOMNrCCJguRDN5F4tPgHvltmZxhPI08V/Rjz16NRld8mWnwO/AzOMbfE3j7Yx+obaXmt0Tj/k+rigGC8bmXF/vaqJAnBTDpefJAvSHZV578Q7DKJRVubUiQEs4ynf15/YtfQL8H2pCWebz5KWMYTfDDJyF6Cp8pzew4IvpcZ/I3x9e8ugok6/LntSX3tdRtvMvoH22slzJDP6g5qUt9xHcNE/fzxSh1mPX1v1/78ztbWygM5VntyzelGpX+x3O17/W08mgsrzbR9uS8FKuooEtsfyjl8Xng5w1BVjFqtS+Mhnnbk+G7pwVdV9dg52OZCGRL7l53Xw9+RyiS2H83x45KSRnluLL7EpKCh4qYrJ7ZeDrBRRWXXvWDwEl6o0txW06dzwLvKL4TLwgkx+FCYu3PX/OkcsLtTZP6Fz3WDd8VBV7e1q51jTbG06VbhG7bFgoX0CjuTL6ik2VMUEE9VD8w7RRandDBudBPyaTR+fcoSFnI0YK14uNJqfv8dAXYKX1rgDUP8rvj5/v5m5GOeRnYRubehPW6Lpx0tvfHT7ymQxFTBkJuXz1Ym/iJ3p/nT72mAiewGvSRXNAQb+UeDukir8gMrAnWQ521++C11eC1/0Xj0kwDhm1xb5HnX3l5IP+fqTbPCq2AjSwoW3tNZI8XvW+EFaOJgmqn/zgEPZVcanPakkE5Clwy03Ryd+GmoXitqnZnoAdZSDdEQE3UeKBKSM9OJZN5GOqTiBjcgBzQlLlKScJ3aT4oQ2L6VDFQBKE/V0d2nEw8T8F7K0eJbi/Bp0Hgv7Kk4ezwg1P4n1pLesoKHxWV+mDRhVXe8zKkJePYifLPVKn2YYMmT1e2h9K57kGV00BQ5KUufZGQeyN1KhGJqSJiRl0iUlMSDlsjtSces8+HI5Q7+tyVPmjG+C5rSiwH9XSmPN+n7kIxGiw3ZZxRvJcLeSZ50q1ShRPan+/OrIwS9EBuHTOebQ2Ry9rpyU1s8F7PnSLULIfZEVcfXv6LPZtJzAh1GoWUS2VDZNjqW0ssXxbfhlfht19EHM75I6lQ4uRv7g7LX0entJRNUgGfx2aGK1VKcvqxb3SssiU7DphQAB/Y6OpGcT6inQpZ9LAMi4YSiary5NBZVbci5cKBaQZxJkU2lZwRofGz+VbKoASZpFVr6di9KKJHPOtFlSTazSuJHDkwJVC7GzFclcwrUxIO03pvw3FeavUxKx8Iu1GSckVQ2zpjDuNAQYnx99Ix2aQJJkOdlivOcsaBk3QlyuzpG9Al/RtAz9joTmofth/ITsFwOaH4KMfyeBnu6qsM3QHEmKknSci+KGCDiTgRyvjiDURxolxFBXAKIXwUFuTqjBTxuC4FMVKcxMKd8nDiAGiUjY+Hsg5xBRTtQB9UAkXROd7Z7yuZyZF4CH4KLyTfRmgUDbpcmS6I5dRHznZXKI+PPyFPHGug9PRzZnA6RAmppGhC6R8/feeNAsAt5WDiwKZq12WUKpGw6LD1Jej1KnBQzmgy+FnsvKNhbnKhzIY8FjIjvyKpIGfHMI/kYPHxXrcCLB2tgWZQyMHEo+1ywYpkvW4sYBK2XU5PMTOPA8slrHyYi/Y+xdDXWoLJX0aBH6ZKcQU93kp4TzjGj1WNopRsbrqsK8scvHUmBeJrJ1Mft8jKi1itxvKKpDdykl9BGNbFPvffff+FYOzDeSMQjahdDyV8Q44lDBpeI+ROjCF1VuYCcDpPmgdAAH0R5Cd+FlMAo6f6YoTR0WXqGwRlyICdSYyJxT2Jym2zGLpkDoTpiW83Udse3LhMmJvGjRzWJtA6u/rsDD/RuiP1pMA417ks4T1wTDpODrYdlgpR+kPo7+8k7iHbwJN3DRrOHQiFxZGDn5TizYxq7GWUVSzghK4Ua2XKHtI9bEGWrYwUYrVIMMHF6vcEfZ3Jkm5Qy1eNAZEanSak9kflDJk/dknHoQjQDw+BMXsYhn2froomvPYwGfxX4Q1sm8lY4Pv26gXhk40nXDxs5I9ltzjINxqnHiIxNjZdhjDuSrQo76a3mfbFNCI30K7QW86Gs9cVrA6o+ZpkaN4fKa4NMMIJmxjLHyCM1xg7FKjMWpLDoLCPWk7CnQm+YmS5rgJmsQURVSLNWo/5BwiKM1KpM2jIw0A9FlMQRw5nIyRZMC9g24YH5jmbj9FO0Q3xoHAdKROY02YLS99wUGp/cW4p5GslD2Tfz/MSEvN1wA9JR8OSQVy+GtCoskPYy9nqoJeli+OB7yI8jrr1bEU5jDXJk8NRJtSopHviUY3YsPOjmQYI2G0yE2Kc0vvV+wTrjme0rqW6nnRkpEY14iUHNszl/mQW+qqz/C01hpkKwsiW1el+4kXouH860QLBALH3/jCUf43/c7jP5s8CvqentFqkJNfyUCv9WpYyQVUNgKNUdx9agEBy3NTDgVQYoMpn0DU10ov4tnkvLDUOYxLMdatO0E3V6/7CFys/Igp22EoiDqyFqqwtYcJnRRpukZyQfi91/FGLQ8181YaJk8P5vCyi40XCtCTNB47oo8KqB2H5xF5qwK+Pvf9mJ0uec6dov0Qbpcj6ojyKuCkAkFLe6lv6n3r25/LoYQHrCtaVrg5R8jvdPRwkiYE8YtKOl8+9DI+rfBRilRkU7T0IcVJ2g+acgHEjzH7U0S9vdP52JarQTkSrq+0NGiPEj4s29olQcePbnWeDnB9AgnP+k2/G68aHB1wN//OgwWHBqi+c+HZ3kdvuv9U4prQYQb/qRq1uuf/dx/Mr3ZDlwvyaX8UHdHvB4s9Ct5esQEwX+H/OFTD1MtPuOAAAAAElFTkSuQmCC;" parent="1" vertex="1">
          <mxGeometry x="660.4300000000001" y="2078.75" width="189.15" height="190" as="geometry" />
        </mxCell>
        <mxCell id="kVqAeBF7xhMF057fxwR8-8" value="" style="edgeStyle=orthogonalEdgeStyle;rounded=0;hachureGap=4;orthogonalLoop=1;jettySize=auto;html=1;fontFamily=Architects Daughter;fontSource=https%3A%2F%2Ffonts.googleapis.com%2Fcss%3Ffamily%3DArchitects%2BDaughter;fontSize=16;fillColor=#f8cecc;strokeColor=#333333;strokeWidth=1;sketch=1;curveFitting=1;jiggle=2;" parent="1" source="kVqAeBF7xhMF057fxwR8-2" target="kVqAeBF7xhMF057fxwR8-3" edge="1">
          <mxGeometry relative="1" as="geometry">
            <mxPoint x="575" y="2173.75" as="targetPoint" />
          </mxGeometry>
        </mxCell>
        <mxCell id="kVqAeBF7xhMF057fxwR8-10" value="" style="edgeStyle=orthogonalEdgeStyle;rounded=0;sketch=1;hachureGap=4;jiggle=2;curveFitting=1;orthogonalLoop=1;jettySize=auto;html=1;fontFamily=Architects Daughter;fontSource=https%3A%2F%2Ffonts.googleapis.com%2Fcss%3Ffamily%3DArchitects%2BDaughter;fontSize=16;strokeColor=#4D4D4D;" parent="1" source="kVqAeBF7xhMF057fxwR8-2" target="kVqAeBF7xhMF057fxwR8-4" edge="1">
          <mxGeometry relative="1" as="geometry">
            <mxPoint x="975" y="2173.8" as="targetPoint" />
          </mxGeometry>
        </mxCell>
        <mxCell id="kVqAeBF7xhMF057fxwR8-2" value="&lt;p style=&quot;line-height: 140%; font-size: 30px;&quot;&gt;&lt;br&gt;&lt;/p&gt;" style="rounded=1;whiteSpace=wrap;html=1;shadow=0;glass=0;sketch=1;fillWeight=2;hachureGap=12;hachureAngle=-41;jiggle=1;curveFitting=1;simplification=0;strokeColor=none;strokeWidth=2;fontFamily=Architects Daughter;fontSource=https%3A%2F%2Ffonts.googleapis.com%2Fcss%3Ffamily%3DArchitects%2BDaughter;fontSize=30;fontColor=#666666;fillColor=#95D2F5;" parent="1" vertex="1">
          <mxGeometry x="655.0000000000001" y="2070" width="200" height="207.5" as="geometry" />
        </mxCell>
        <mxCell id="kVqAeBF7xhMF057fxwR8-13" style="edgeStyle=orthogonalEdgeStyle;rounded=0;sketch=1;hachureGap=4;jiggle=2;curveFitting=1;orthogonalLoop=1;jettySize=auto;html=1;fontFamily=Architects Daughter;fontSource=https%3A%2F%2Ffonts.googleapis.com%2Fcss%3Ffamily%3DArchitects%2BDaughter;fontSize=16;entryX=0.288;entryY=-0.005;entryDx=0;entryDy=0;strokeColor=#FF3333;entryPerimeter=0;" parent="1" source="kVqAeBF7xhMF057fxwR8-3" target="kVqAeBF7xhMF057fxwR8-6" edge="1">
          <mxGeometry relative="1" as="geometry">
            <Array as="points">
              <mxPoint x="455" y="2830" />
              <mxPoint x="645" y="2830" />
            </Array>
          </mxGeometry>
        </mxCell>
        <mxCell id="sny4thyLsxpEXio4V1Pn-10" value="" style="edgeStyle=orthogonalEdgeStyle;rounded=0;sketch=1;hachureGap=4;jiggle=2;curveFitting=1;orthogonalLoop=1;jettySize=auto;html=1;fontFamily=Architects Daughter;fontSource=https%3A%2F%2Ffonts.googleapis.com%2Fcss%3Ffamily%3DArchitects%2BDaughter;fontSize=16;" parent="1" source="kVqAeBF7xhMF057fxwR8-3" target="sny4thyLsxpEXio4V1Pn-6" edge="1">
          <mxGeometry relative="1" as="geometry">
            <mxPoint x="210" y="2610" as="targetPoint" />
            <Array as="points">
              <mxPoint x="60" y="2610" />
            </Array>
          </mxGeometry>
        </mxCell>
        <mxCell id="kVqAeBF7xhMF057fxwR8-3" value="&lt;p style=&quot;line-height: 70%; font-size: 30px;&quot;&gt;&lt;font color=&quot;#333333&quot;&gt;&lt;b&gt;uad-ghost&lt;/b&gt;&lt;/font&gt;&lt;/p&gt;" style="rounded=1;whiteSpace=wrap;html=1;shadow=0;glass=0;sketch=1;fillWeight=2;hachureGap=12;hachureAngle=-41;jiggle=1;curveFitting=1;simplification=0;strokeColor=#666666;strokeWidth=2;fontFamily=Architects Daughter;fontSource=https%3A%2F%2Ffonts.googleapis.com%2Fcss%3Ffamily%3DArchitects%2BDaughter;fontSize=30;fontColor=#666666;fillColor=#95D2F5;" parent="1" vertex="1">
          <mxGeometry x="290" y="2540" width="330" height="140" as="geometry" />
        </mxCell>
        <mxCell id="kVqAeBF7xhMF057fxwR8-4" value="&lt;p style=&quot;line-height: 140%; font-size: 30px;&quot;&gt;&lt;font color=&quot;#333333&quot;&gt;&lt;b&gt;uad-neck&lt;/b&gt;&lt;/font&gt;&lt;/p&gt;" style="rounded=1;whiteSpace=wrap;html=1;shadow=0;glass=0;sketch=1;fillWeight=2;hachureGap=12;hachureAngle=-41;jiggle=1;curveFitting=1;simplification=0;strokeColor=#666666;strokeWidth=2;fontFamily=Architects Daughter;fontSource=https%3A%2F%2Ffonts.googleapis.com%2Fcss%3Ffamily%3DArchitects%2BDaughter;fontSize=30;fontColor=#666666;fillColor=#95D2F5;" parent="1" vertex="1">
          <mxGeometry x="867.63" y="2540" width="330" height="140" as="geometry" />
        </mxCell>
        <mxCell id="kVqAeBF7xhMF057fxwR8-6" value="&lt;p style=&quot;line-height: 140%; font-size: 30px;&quot;&gt;&lt;font color=&quot;#333333&quot;&gt;&lt;b&gt;csd-content&lt;/b&gt;&lt;/font&gt;&lt;/p&gt;" style="rounded=1;whiteSpace=wrap;html=1;shadow=0;glass=0;sketch=1;fillWeight=2;hachureGap=12;hachureAngle=-41;jiggle=1;curveFitting=1;simplification=0;strokeColor=#666666;strokeWidth=2;fontFamily=Architects Daughter;fontSource=https%3A%2F%2Ffonts.googleapis.com%2Fcss%3Ffamily%3DArchitects%2BDaughter;fontSize=30;fontColor=#666666;fillColor=#95D2F5;" parent="1" vertex="1">
          <mxGeometry x="550" y="2980" width="330" height="140" as="geometry" />
        </mxCell>
        <mxCell id="kVqAeBF7xhMF057fxwR8-11" value="用户" style="text;html=1;strokeColor=none;fillColor=none;align=center;verticalAlign=middle;whiteSpace=wrap;rounded=0;sketch=1;fontSize=30;fontColor=#FF66FF;" parent="1" vertex="1">
          <mxGeometry x="667.2900000000001" y="2210" width="175.42" height="50" as="geometry" />
        </mxCell>
        <mxCell id="kVqAeBF7xhMF057fxwR8-12" value="读请求" style="text;html=1;strokeColor=none;fillColor=none;align=center;verticalAlign=middle;whiteSpace=wrap;rounded=0;sketch=1;fontSize=30;fontColor=#4D4D4D;" parent="1" vertex="1">
          <mxGeometry x="310.0000000000001" y="2360" width="175.42" height="50" as="geometry" />
        </mxCell>
        <mxCell id="kVqAeBF7xhMF057fxwR8-18" value="全部读流量&lt;br&gt;转发至csd-content" style="text;html=1;strokeColor=none;fillColor=none;align=center;verticalAlign=middle;whiteSpace=wrap;rounded=0;sketch=1;fontSize=30;fontColor=#FF6666;" parent="1" vertex="1">
          <mxGeometry x="367.28999999999996" y="2846" width="270" height="77" as="geometry" />
        </mxCell>
        <mxCell id="kVqAeBF7xhMF057fxwR8-19" value="返回结果" style="text;html=1;strokeColor=none;fillColor=none;align=center;verticalAlign=middle;whiteSpace=wrap;rounded=0;sketch=1;fontSize=30;fontColor=#4D4D4D;" parent="1" vertex="1">
          <mxGeometry x="460.0000000000001" y="2360" width="175.42" height="50" as="geometry" />
        </mxCell>
        <mxCell id="kVqAeBF7xhMF057fxwR8-20" value="" style="edgeStyle=orthogonalEdgeStyle;rounded=0;sketch=1;hachureGap=4;jiggle=2;curveFitting=1;orthogonalLoop=1;jettySize=auto;html=1;fontFamily=Architects Daughter;fontSource=https%3A%2F%2Ffonts.googleapis.com%2Fcss%3Ffamily%3DArchitects%2BDaughter;fontSize=16;entryX=-0.018;entryY=0.62;entryDx=0;entryDy=0;entryPerimeter=0;fontColor=#FF6666;strokeColor=#333333;" parent="1" target="kVqAeBF7xhMF057fxwR8-2" edge="1">
          <mxGeometry relative="1" as="geometry">
            <mxPoint x="479" y="2540" as="sourcePoint" />
            <mxPoint x="349" y="2251" as="targetPoint" />
            <Array as="points">
              <mxPoint x="480" y="2540" />
              <mxPoint x="480" y="2199" />
            </Array>
          </mxGeometry>
        </mxCell>
        <mxCell id="kVqAeBF7xhMF057fxwR8-22" value="" style="edgeStyle=orthogonalEdgeStyle;rounded=0;sketch=1;hachureGap=4;jiggle=2;curveFitting=1;orthogonalLoop=1;jettySize=auto;html=1;fontFamily=Architects Daughter;fontSource=https%3A%2F%2Ffonts.googleapis.com%2Fcss%3Ffamily%3DArchitects%2BDaughter;fontSize=16;strokeColor=#4D4D4D;startArrow=none;startFill=0;endArrow=classic;endFill=1;exitX=0.419;exitY=-0.005;exitDx=0;exitDy=0;exitPerimeter=0;fontColor=#4D4D4D;" parent="1" source="kVqAeBF7xhMF057fxwR8-4" edge="1">
          <mxGeometry relative="1" as="geometry">
            <mxPoint x="1015" y="2530" as="sourcePoint" />
            <mxPoint x="855" y="2190" as="targetPoint" />
            <Array as="points">
              <mxPoint x="1006" y="2530" />
              <mxPoint x="1005" y="2190" />
            </Array>
          </mxGeometry>
        </mxCell>
        <mxCell id="kVqAeBF7xhMF057fxwR8-24" value="旧计数应用" style="text;html=1;strokeColor=none;fillColor=none;align=center;verticalAlign=middle;whiteSpace=wrap;rounded=0;sketch=1;fontSize=30;fontColor=#FF66FF;" parent="1" vertex="1">
          <mxGeometry x="367.28999999999996" y="2630" width="175.42" height="50" as="geometry" />
        </mxCell>
        <mxCell id="kVqAeBF7xhMF057fxwR8-25" value="旧收藏应用" style="text;html=1;strokeColor=none;fillColor=none;align=center;verticalAlign=middle;whiteSpace=wrap;rounded=0;sketch=1;fontSize=30;fontColor=#FF66FF;" parent="1" vertex="1">
          <mxGeometry x="944.92" y="2630" width="175.42" height="50" as="geometry" />
        </mxCell>
        <mxCell id="kVqAeBF7xhMF057fxwR8-26" value="社区内容业务应用" style="text;html=1;strokeColor=none;fillColor=none;align=center;verticalAlign=middle;whiteSpace=wrap;rounded=0;sketch=1;fontSize=30;fontColor=#FF66FF;" parent="1" vertex="1">
          <mxGeometry x="592.71" y="3060" width="250" height="50" as="geometry" />
        </mxCell>
        <mxCell id="kVqAeBF7xhMF057fxwR8-27" style="edgeStyle=orthogonalEdgeStyle;rounded=0;sketch=1;hachureGap=4;jiggle=2;curveFitting=1;orthogonalLoop=1;jettySize=auto;html=1;fontFamily=Architects Daughter;fontSource=https%3A%2F%2Ffonts.googleapis.com%2Fcss%3Ffamily%3DArchitects%2BDaughter;fontSize=16;exitX=0.548;exitY=1.107;exitDx=0;exitDy=0;exitPerimeter=0;strokeColor=#FF3333;" parent="1" source="kVqAeBF7xhMF057fxwR8-25" target="kVqAeBF7xhMF057fxwR8-6" edge="1">
          <mxGeometry relative="1" as="geometry">
            <mxPoint x="667.29" y="2685" as="sourcePoint" />
            <mxPoint x="820" y="2970" as="targetPoint" />
            <Array as="points">
              <mxPoint x="1040" y="2685" />
              <mxPoint x="1040" y="2830" />
              <mxPoint x="800" y="2830" />
            </Array>
          </mxGeometry>
        </mxCell>
        <mxCell id="kVqAeBF7xhMF057fxwR8-29" value="读请求" style="text;html=1;strokeColor=none;fillColor=none;align=center;verticalAlign=middle;whiteSpace=wrap;rounded=0;sketch=1;fontSize=30;fontColor=#333333;" parent="1" vertex="1">
          <mxGeometry x="1000" y="2340" width="175.42" height="90" as="geometry" />
        </mxCell>
        <mxCell id="kVqAeBF7xhMF057fxwR8-30" value="返回结果" style="text;html=1;strokeColor=none;fillColor=none;align=center;verticalAlign=middle;whiteSpace=wrap;rounded=0;sketch=1;fontSize=30;fontColor=#4D4D4D;" parent="1" vertex="1">
          <mxGeometry x="849.58" y="2360" width="175.42" height="50" as="geometry" />
        </mxCell>
        <mxCell id="sny4thyLsxpEXio4V1Pn-2" style="edgeStyle=orthogonalEdgeStyle;rounded=0;sketch=1;hachureGap=4;jiggle=2;curveFitting=1;orthogonalLoop=1;jettySize=auto;html=1;fontFamily=Architects Daughter;fontSource=https%3A%2F%2Ffonts.googleapis.com%2Fcss%3Ffamily%3DArchitects%2BDaughter;fontSize=16;entryX=0.288;entryY=-0.005;entryDx=0;entryDy=0;strokeColor=#FF3333;entryPerimeter=0;endArrow=none;endFill=0;startArrow=classic;startFill=1;" parent="1" edge="1">
          <mxGeometry relative="1" as="geometry">
            <Array as="points">
              <mxPoint x="477" y="2810" />
              <mxPoint x="667" y="2810" />
            </Array>
            <mxPoint x="477.29" y="2680" as="sourcePoint" />
            <mxPoint x="667.29" y="2979" as="targetPoint" />
          </mxGeometry>
        </mxCell>
        <mxCell id="sny4thyLsxpEXio4V1Pn-3" style="edgeStyle=orthogonalEdgeStyle;rounded=0;sketch=1;hachureGap=4;jiggle=2;curveFitting=1;orthogonalLoop=1;jettySize=auto;html=1;fontFamily=Architects Daughter;fontSource=https%3A%2F%2Ffonts.googleapis.com%2Fcss%3Ffamily%3DArchitects%2BDaughter;fontSize=16;exitX=0.405;exitY=1.013;exitDx=0;exitDy=0;exitPerimeter=0;strokeColor=#FF3333;startArrow=classic;startFill=1;endArrow=none;endFill=0;" parent="1" source="kVqAeBF7xhMF057fxwR8-25" edge="1">
          <mxGeometry relative="1" as="geometry">
            <mxPoint x="1021" y="2685" as="sourcePoint" />
            <mxPoint x="780" y="2980" as="targetPoint" />
            <Array as="points">
              <mxPoint x="1022" y="2681" />
              <mxPoint x="1022" y="2685" />
              <mxPoint x="1020" y="2685" />
              <mxPoint x="1020" y="2810" />
              <mxPoint x="780" y="2810" />
            </Array>
          </mxGeometry>
        </mxCell>
        <mxCell id="sny4thyLsxpEXio4V1Pn-4" value="部分读流量&lt;br&gt;转发至csd-content" style="text;html=1;strokeColor=none;fillColor=none;align=center;verticalAlign=middle;whiteSpace=wrap;rounded=0;sketch=1;fontSize=30;fontColor=#FF6666;" parent="1" vertex="1">
          <mxGeometry x="802.29" y="2846" width="270" height="77" as="geometry" />
        </mxCell>
        <mxCell id="sny4thyLsxpEXio4V1Pn-5" value="" style="shape=image;verticalLabelPosition=bottom;labelBackgroundColor=default;verticalAlign=top;aspect=fixed;imageAspect=0;image=data:image/png,iVBORw0KGgoAAAANSUhEUgAAARIAAAC4CAMAAAAYGZMtAAABO1BMVEX///83NTW75vvT7/wSh7E0MjIxLy+/vr63tra6ubkqKCgfHBwuLCz7+/sAhK+5uLgjICAAfavw8PAmJCQAAAAbGBj29vaNqLW/6//t7e0XExPn5+fv7+8faoXEw8OCgYGtrKzc3NxxcHCfnp7Q0NBSUFCTkpJ9fHxGRETLy8s8OjqnpqZvbm6bmpo4MS7C7/9bWlphYGBNS0ucrrbc9f+LiooqIBwvkbfc6vFSn8Dj7/S81+TM7Pw0PkMbc5OZw9cAd6iMvNLp/f8xRk8uTlsmXXIdcI6RvtRysMuswcqFnqpldHtTXGGx0eAWf6WTsb9SSEMnGxYAWnhth5RHUlgaPkxWZGqTpayCkJYuTVt9iY9mn7dPcH8sHRTCz9Y3iakYAAAAa5IoNDlJXmkIR11ZlK0PLzwAESIRGh9zlFhmAAAgAElEQVR4nO19CXvaSLa25Fi7AIGQbJADEogdbCDGG0mIO+3EsYM9WTq9zO25M3Nn+n7//xd8tUqlhc2x08ncnDxPDEJL1VvnvOec2sRx3+W7fJfv8l2+ywLx/uwCPKzYm59Wf5CCfD2ypMWZnwoMJPXOw5XmaxB38U+OHH5mUJBH8RMLyx+R2bBIX1iCxibVcAbsr9HCj8OPlVL4sVjiouKsoJbKBuX78uIEn3r4T9thfo0axCikDHsSfPSLvfhNm+yXAJ4ACOmrJONAN4JyutgoBgZzVjXCtK1y+LkR/OIXG/Gb11itGfjkg0I/2Ak7+yqEIlFwyYcS1n6vPAzOcXifvaRVdIPPk0BJfE2Lt7k7Yb50KI6FNj008rmvUZp7+O+A1qctwv8zXTFo83qxxVyQGRlBnTi3SPnTt4wI9wDxigwBOUX6cztHL+5+VskfTIZYTewyMYCqgbS5pvOk0eWuaTDN7wu6FRBLrkj1wLfEuNnYRcYtZfgyAW+ikUNO8ev02HtGFf0dFPH3nqZP0B+e59WB5LZ0QxBC/1KoWoIeMIBraaSeFUtQ42YzZtwSNzQIeHJgde0x9zWK3TM1qB4FC1u6XObVOrR7Hopqqjr8K0rYAvyWBb6blDOrGD58mYG9Tcin/SKDUU01sBZ6ZZ1e/ZUqidMQ9Br4OxQ16HJ7Fs/rzR/+ZvBRMa3xaNTQDAiQ4eJL/bbKlzERDSxeraFPucBxT8rV8DETw8Rue0+ll+cY+v6qRAGVN/vSUOfF/nT+FkIhtK8MgY+LIIr4oIjr7vctgddxrWsGL44RFlWJ3rhniaHfrmsCYdK2zuMPTrmcFpM4Kce+rGS6sJ6iKcL/j45EXHs9AQiLzdvfBs2aacBzLWgmDtAWoQuNoNAIPJNc1pTgKW6Z17CRDHVNIg8mahUV90+G5IdHb56Jy2q/ABNd1fFlSElcTeAFAfqWiqHTGlXKej94jgT4CatTXxUJpY50LR77w3s1k8e+lPzwaH51/cw4ShrIJnI0/aEyBrYm8r0MV+hrlCag/9GDGgNExDEyopbJW9haJqYZD2KA1I3ksS8iPzy6/fDx3ZEqfh4eSAzIOkJDtgtNSxepc64A/xOEJOCLIKAotWXwOrYs1xJSorRq8c9IAjMQjqMj/R7QCEVotEaayvOUL4FH1gOiUIA7V134CSAiqEhbOgG3sNIv9xPHHlp+mF591O4ZDoyJCLmFaAD0yEKbmg2AhzebEIi+yfMa0h0PuOxWvHCFtirufSkksJy9+SAeqQvhEERdp2DtU3n28uXLZ8+edXkBflsFjIEaPtMH5KJSC6hDRKqAdO0hUCNMuSVVELrxLkxfFY1c5MgDdy6dvbk2U9UD1XVfePbyp0/VZnPUBd/5lz9eXFw8hkL+4M8/dhEoALoFJKReHYIATAQePMj/qiAtMFseTKXBYYGHDqkA/ppx0uiVhZhTftAcOfPm2jKTzha2+zNS/VdXuUp9pO4LLy8ev3q8QF5dvNwX+FZ90m/wahouRx+vdUi3ag3rgD0EtqK2fBiYwLNNGJLYwD+ZMV+b6WvAKUXMxn1AQLzfVENMgCE8+/HHUAWupMpgfLT/jFGKV1ASqABQ9IYiSU9+/uX6bRIXAT1IHOLoxIcKo7Y6XGEEc0gMRKErAvuJmo0HVEjQI3zbfLCQze61tUgoCg3l2a8XbDXff8hVeo2j/YvnNzc32e00AT/cPH+OELrgj+SBlHsC5effPnVp1MY8oosr17SgwlQ7mQEugtoHSbMDiFgcRyP5ATzRjHRRVh/KG/utMsunhCcitvD8H38FvqH5bv8CV/40wOR0ATjP/0suN6UnVH7+AGCJKEt3ZwtwSqWrQoWZ9CaGig7rQwCED+xK6Ebq67VNqEETVnFqvTUHkDYUeWwxCgLhuPjx+lWAxc1N/vjycnsOysn//usNrnF2dkw+vD5NV5jt7PnfDEP2Akx2dnaurschKvovuwfzn8ca+a6SMojjDorQALfKbCknUEUA+7CGMqo+hNkUBqoZNJ3AE2O5aGE0UG2zU3zqoCw8385e4mOzGUYif7YIkvz0/GZfLRw+ejp9QzHZub368JESiyjoSWcvthUuU9Mg3bAaIOtIhfQRO1DWbT1At71TLasBHro+7P5ItKP63zdBa5/hc+2//wq/nSJMsq/P8ujHU45Acnwch4R7vn1z1OAeQYGw7GC53bn+qC5KIsWxwlVE5Id7zKhPG3dC6COGWn1rdP89S14/sBhBVBu/PRm8hHA8B2iMZrTts+f09KssVos8PkpUgUCSn8aUJXta+Mf29qvf5cNHROaz2yuCytV1NzU2FoY5dwhNSey6gQbk2sS49JEUFr5XHN07tXqjMm0rUe1e/wxUu/34FXEl/zzJ06r9Ri+Yo0P5kxn4m73kXqMzOQxJ/nyaj0Eyd+EPF/sBJE+3drfmt1RXfnmbcEEwCdKRAoljmSDiTUzaTaWOpCBQLQzLfemew1avTwEBBjP6BTuF90GF/uUHdvCMXvI3bCqXXBb9D0HLzjAk2WPuMqYlee4T+nv0hkLyaAtIiEqqquDvQtv1uUzBk6t8GBqYLSkgF9fQatL9OhunZgWAdK8RHm+mh1dhhR4P5rSK/0MvuiJHoLoASDgAWt7GkORPuBiTZC/tf6EPF/1DFhIkM6IqOx/a6cmUoOq6qmlmCJmgNgMM/IZhVO8XEbta1umDPn7AeIASHz4Pa3SzzxFDyFN2df6dpweOsxCSGfofqkd+xoWGhv7LvzhzH+MDR4GW7AaYMKqymGpZ0duuQjDwR5auD+4XkbpBQwD17dXtzpMnU1Jklg3+8DBX5EE8wjXaw/G7C26WR7Qx46Z5CMZZHigHhAS4HcIswIIAQtnsbDrlGkSpfpqGZBLKLlWV26u3q0ERqxXMpSW3oYkAn3vlEUkwKSCfACA7t0GJ5ywkF1WkJrC2nPtuH4Tx26fcCdQBeOg0D/Xj+JjDkIAWO8YAnp8BRE5ReT1yu/dv0iBhVOX26tNKULqjnpJzq20NBFFqP3efvsZrEIcmIA3ZmW3tBnr9miXIm79z0A9DsrD/2H7+HBMrd5mHxMmdvYBQzWYIkhdTqDHIZk4gNHnSgm/w/Z7/nCQTqioBKG9X9VeJqmmq8CRRbCr3GI9kJoRVQ0C2ntLyHkZ9xk91DnsUbkK1BxrRPJ8FsQh3CSE5Q/Z8CRUGkjHUnHPw9x/0cfi6m8WQQPsJQFnca8WIYI5k+R5jVsVUCSAfISDzLch3ISTRyPz574AyQNjBlS5O8+QXyB1nx3kQvNlBAMedQ6U4zUIVwST7nhYZB8DZZZCE/gcS7UpQ9PZAUlbM4NpASiMaBHY/IECwLIJk+58D7hJyazN/eXKeJajA6p/nkzfPI3LJoJMek34fl0DyJM3lpIFSHy8HRRcmknyPRtPTsM2I+vVOCMjW1qNFkLx6V8gABOz3wI2ccdPLfDaL2ZabJuh+inwPie2z7+Bnb/IH8cpvVkKytYVC/SdSs7tw/FDQ+aqiyPeX+jpjg5LIDuSQrdWQbL9EfcJ14ni5zBwYUP489fY4V0YuK4u4pl1+d0T7Ef4WPCLucuKcoijShE8DBaRg46akyPfYzzogtKp3f7lFpJoGSTwkv/k7bBIccOWRYz17vf1ivvAh0Otk88dzG3U10Z4VQEBrQIK9j5zLSUpViHkfQTfbrR4ApHJ/4ZnTMImKAJu53Yqq72JItv8LXFt5Qdp6G5kGd7IYkuNsfvs1inX9P5i7rAkJBOUJwESRlElbFQUooqirqjCqupKUkyv3OHjTIwme2gAGO4/bc1DeR+fxxA3V/jJwwbPlj7kENAwxy3A2tRkkx4drQgKo3lEAKDlJqreGjUZj2K9NBgAOgIfcuT8/w9kjyiKTJxESSUAyi0MCW9wGDoZ+P10WRZ9h9ZmDc/7yirlL9nR9SLYAK+fkHKAUKgpgVFmuePcZv1dMnaiIK9+mlSKEZCtuOBARPgNTGyz5/HTF084g+9Yu2Jtkz0NIFnucABJg5hW33gO6oeSAcsiy0nHut1+kioaKgIpUpVzCZrCyhm0YhST7b3C9v98C/uT08vz8/PVsNp8vJ7gpRGTyU/Q2s0frQwIr7w8NVTW7/UHF973SfffAl8ZkHACk1pWz9FKEkBxGe0+zO+AOs4uau7YVn0MlGvwRuct2fhpCsgoRCImLmQ+6XWXlEzcWBbteQW1JIC9Y0EQMJNHAJPsE3OJy++J3A0YDayjvHHJP7yfgiGFUF9zmcCNIvCL1vLquCdLKh24mVQuHq926Ajz6AiVhMuEYv2ZdDuX8j/fLdeBIzudnaz/5bHqZxq6rIeG4EclL2/Vma6gXG/c5LFFoYKNRRzmUOi5ke6bE+QQkEKTn+0bDgclu9vJkjQefzEAOGICbPQ/vv9LhbHGeRgM0WQJ+x20V729SWgcPeQt6U8J9cguLERb5cDsBCQLp5uVRcQIYZTpboSj29PVpxGoAlWxtAMkuN6R9SQLf68gwHFFq95TW9LCnAbyaw3nBIruJkEkkfs33QB3zKGnJX/TXWXfWOc2+yMc9OWM3Kx3OYSdQEl4we1zBV1yP8+7F69RweGbWlBwZM1tsxyEkUcvJ12Hakt0+PZ+uzyKF+WWeRSV7uQmV/LDPZjdmG7QmQOU+4ta9NqIRURwoQSflkhZiLId1w/kBhOT09XR6cnKW2SBcmp6GoGxkNwdNlWdFKKOFS87nW46HO3f1Btslt6QkYaEjaU52Ag0HBa152PLH//2hOlmvdCeXedphf7g+JLvzo3ingG5N7sNqcohGYDCihLfLLCkKYzmPWEjglDDWkkDivxSR+clJiSrT2SkeGmRC15V2s9tOjP0JgmrUPzueb6JoROTrkX7sZZAwkQlLsHkICWMD2VWp8MkLoE2vLoajlgu+TdEg1+H6kBx8UGOAiO12V1UtLbE0cjPBxKoO5WiXnL2sMEyxnwZqQfrPzmjnQP50JcmSEb/nv/6+D8NOYD2v2Vuv0JHZuxgiQxCYKHJv0GwXP0NTbBSfCepEig0QLtMS1nICNQmT3nPcfQhz/8x8uaLQUdDsxTsY3E23GURW2k185qMwlGAmnFOkEteZrJ9pRcVBvblhMLImJBE1IbzI9LGC1Cd/CZppepk/XlGAk8DMLv4OHBZrNiuU5OBjYsBPrTuO4/mdnKsAfJ078ayHpliZfSWXpMGl5WHVhAwFMwU4ebF9ApwIHLdYqL/2NI7JzU9/8dZXkoNrNY4I4BKiGbbj33HldAVOcBMFEIyklHx55MgU/RCN7t6w156fzbbzeMoEtygnPs+fI645C8P59ywiy5Xk4CrufwU0FSl8lu3cwXLgvHzEq6mALm8l1g+jEPYxe+1f8+EkAm6Sdncgx/n86ZTFJH++trs5uH0XR2Q40nVe/7yVnwMLJnmTReODi3OchJrAeO09Q0bOP0hsjhDBkLCWOUVGA6gVBHXnJxSTSJS2XEkSzgY0rSzlqoKujz8jKJloqH81tzA7Ww4JqyawK+nmL+GVfVJF+Nn9X1T/WdBLkIHTCJAfQpEvHMc5Q2lBlr3lUiXZnSGrEUUxdDp6MycruZaqju8cvaJVPVVpyfjgCn5jy/8IRFn/HNH2yf1rOyBc7/+hmRJnLwBvZBAQMCU8zqNx0WMS0WXRVK35ukwC4ngBDrr1W63RWCVThQXRLviy4g617h29b99EKpLGq1SWu+EoJsATP//dxBNP7SJGBOpFRrzBlX8BHjRHajM9hfqR3T7jInOz8q/XNRugI5BJW2SQot7qqnQZU8aXpaZo3CnrG6kiYJEV8y5WBAZRPc9uv9o/Auzkcty/0aAw6mbsP0cTTs6zcO7AKcSFm784gZMu8KSTMAFm+wSWms3BLVpJqTfheA2OzHp9URd4Da6gtjuy3C/eYSR4qKojObdqxHSVmkToZJ7fvvl1f/9IhLMCILWeg7tL75GyQG1AM9Ugrcyg0eS38YSbIB2KIrIkADjYwcwqjNFwje14FTmHhkCFMppCX1IUN7ZKa7VkxkZ3sEpFoByuwORRBBMUndyYMp4icQy0w/4JVBZNIoFzKsh8RqAxJ3gSRfY4Q0wnpiNL1PPgA/U14ZqSDEBFkQYNtYyR8GWvtlkHrN3WWmsOqq/o6NuNYLKFfOmrv2D3Ckf+qjd46h6G5Bjhg+czznBPQPbkPJsISJbOoLgOIzSLGaCwPaAq9QbZmaKQ86S0BeULEeGH7roTUVaZTgSTR09RGPtHBVYbRmneexStzfPB3GhoRTABOjmj2TJckpKfRRBZTCS78zY7l6QcGbRxJFmqt8lGSn6nUF3b8ZRGrrT+RJQV8VqUYh89gvaAAhQ4iRGFJ/kzG+XFrxGVwtwQ6sxxSCLg39aaiABijWZ6ZTdSWACKLxGLKVU4d80sx+54srSB415FJ1FMDs9BJP++AzsOsZIAWj0lk5KQcznGwUj+JPA1+dMoqkt05DreP8JbMcpwlE6mQ+KKju2t2fLehjMeN8RkCxgPnEMPylVDaoFZIz/F6yryZxwObMnKk2w2ZjQLETmYdWNdz2KbV8txyvDCOb9eKbMWJv7GLnszTKCi5NFotfMe9aKQpVonZBEO0ZYsQiqbP326HiK7Wx/exSZfNXKS5FbbfHwXinAQx3a4NaZV3CVhXsUnuzFMnp6+gMWsR4Z4yOIb4Gzwh+NjCMg0BsgiRBIqAnfzgF1oSqUzjM8FZ1ypw9kPs3J8ld/ZitXrcPpXUKzMMdt5Twc38iQSyQJA5nFAFnjfg61P7xLTW8Wa5DleR85lOks6nx8IEW5laB83nkeHj0A0b28zmBxHsAGZ3mVCQxYgsrv1C+toBLKgQBCwxXg5j/MX6/6qETbvzqNgGzpjBEsmc5wY70X6AWK1+WECkHSj2d3dEVmbEcZyC8+INmivhuN/jjJId18UumoEIYkJ7JY9PabT1sjctXz29Hyagke6igBAunS7HLLeoyFJvS5azRduwujYnH3nXhJ7qNfviMrZiug+RVEAKIePprPXl5enQC4vX8+m4EgKHumJHgsIr4+7SDtUxZflMQxirdB5ZmzoXu4kBY/r8EVhIi25vgByy5xbb05aSKrNnlvxkN1u6I5ZYIgsOiFNRXa3roRwQyWxVQE5DDAhtcfZFWUEPsV3KbzjPMZMp1NQxmXLUofVutzxPWdvb68Exz4kgEJrNBYtSzMMU1X1QFTT1CyjUXW9zA/LNWV3IShLJQWQ3YP5dWThuF5VQGI30QW005Gv1AAmRmQ9vX1nRnFkxcu1RBWIaRiaZgHRKApLtnUSdFUzhvU3uwfLYLkDKElAdne3dj4eRRcLiCO/5Ek5ty0iIDylZdLtjwJM7s6xHoxw6q2GiDAQNtm/SFSPjj7tzHeXobIZKAlAdnd3Z9dHyS3I0IZ7jgJMRodVLykTM9giicgmU1oSoEiwey7Xa7b6w3FX0E0TKY1J7QV8hgfStUZU37U/3G4dLMbl6bqoPE3c4mB39oE/SlvKaGAy7Si1Msr1ChLAxLrH5UcFgAqdeq4oOVl2US9mIDnZ7dWb1dpQSFtqKehHR2+vZruLYVkDlQQeuwdbt9c8s6+SIIrhw+nGnp5Sxdt42lLTFPRlldxYMiWvI8lUcnj+ucweQIj1WunLT0UAy6er2dZCatldAsvTuL0Ac5lffYruyia0a61+N+DYYHdbZYJ3DoaYJHcM+3yxC47jeZ4PxWPF9zsViFhO6jFEJ4gsQIBa9Le/ACNaqC4Al6cxMFK0Y3e+A9Qjro86XEUiNWlHmumSIhekKu47ywBMrC++q15mz+sowcxSXR33+90ov0Bt6V4DdQENvXJOZkI1ABq3v7zdT93CUOwrqEmqWFGEYFdpWyKbUUNMzIfZyGe5OHR5TrcqQ+pJTBCDM/qP3rWvr27nsMnXgAZgcQAXzH94u//uKGULDixwW2nbUxTgeZHlBFxqV8iQXKbS1P6M3W4HeAedbhMthpJzLUZr1HBbKwHqy1H37Yer29kc2NIBRici4NjBwdZ8tgM3Cjs6SttCjYkKVJz1e7ncEBqPGFbe9oluAD0pfvm3fxSgkojiRAJuSPH2Mpk6WZ8CA2C31xxFluoCYEDsAqT99vr6w9XV1c7OLRC409PVhw/Xnz524Y8Qi9R4SOQbw0ZXxSwrCKTeFaUPn8kkNTbtS8tUJncZ2/s8qem8YPZluHwQlwNBIuotGa2TUiR3nKb50IPCCEfFCJE4ZwESASJ9NM7rTvDUZINyp4cCeCb3DUPVjDTRvjCdSBawmbqkyBJtGLjaQx3K4JCc6/gdRVYad9gAOISBAakr4VBAkZpwu70QAwdhYqUl8Rmp+mXppKQJag3WPiiNDeelADMCVoRbp9CRk4y7tgi1YUBHUEmcQqEE+w/lBuAPK8jYSxATMfU9FRmp9UU3QW6rQEVy7FiYawoiPMS0mDdImUqXDgA7SwaJ3qzINZXuMB6sRAOOZqQHISuQPfg9VU2AU36wXQZTpF9sQX1gBwaAR3QlOToxpUNWWuuUasVuqDh6EIOJIK5p1WjsRU8ANkncrNhn3+agDEWe2fG5AL6L6SZiV9acqn8PMilKIG+OMHql3JUTS/ld7KfbE7eBKio2lDqtuDBw+8RHtVA8Kk3gT8JwiM8wXTh7aISPsTVz5K5gMAsYS8A+F+R5hc7nz5tfT+piyYnNI+fGbYBIXH+hSggmUCgFmZDQzSnUltSelJNqKK7oV/AsGfyb2msh3YJ9QjZ2s3gj20CcuhlRC8dN9KRR2fPk9B/uWdw+V3JjU7ckw8klph1U4O7o7R700xVcW0XpYUjMpiR3OsoYTi4bKDkQ13AZTxohd1JpIkzQ/BjsZo0o1l5Nt9hneXVVW7DEs+R8iehE7nF2YvRdL3WSEzGAkqgjBftpUEu9JsmZJjILvY+m9th11GsaaL0MsRAdYF0CTV4caDt4v/BQOoIaiU29ibHovTfOXsp+/PcsFZ+z5fhjmr6dfBFCz+TNKvVBJiJMh0OkIrQJ7RSAmqhuuFME/FVzbJxl4+RlL9cQxfiod1WNQtCpxSZQhFJ6cDbxSsDC409xZC7Zub9nCfpAypE1gSavwg2qbAsTCV0Y54LjjLlDszJlEI5D9SGEsQfoU4s90dFjfrfSWPjagXvciSJVQMBsJ60zx6XM2Rip3dArZwyhDcwG0QtwMfAjFl1QGRqAq3tVGGBVmuHG+05PN+IBxkSLhmG2nPZ6BiwPriYpY0Ve2oblbrnBeOWCpg5y4Lwq3IG1zcw0buoqU13boF2HnZYadCt7TS0enzpWrC+xNCg+tDoskkwyl7LtlNdUOsWaz4SynjWWYCwB0zu1x8xG9yyVjSm6AoAENWsFRmR0N8VaMb4zzSj+rhuv9gCdi3eXQlI39arNhi6d8gCu7YGGATIWmTm/G9k0H/Crjl6+wGVkENK45HClGzcLqRw/0ul+TS8pTGpOrcnlZEaT3S5SEuiChei8yWakm7Qv8uqAbLPfVINOxIwbZ88M89o6IvJX9NqopI706lwnxwI1GSAcQCAKHE+EK/0iu7tICwQhdPdrZygGfqWEFoOyUivHSa0wue8tOe5RfBeEnRGg+h6sOLAboSHJEaXKsK/ag/SrB2YlmXrgV/y4CijlRKzubTLP98tKqcIVYg0m+7C9mzAQjWdCQ3YCFYCkG15a09Xgsxu7414xCUDFvVuBH1wyHpeJZaYlG1VIEEBIEtfuARthVHVhGJ7gqVrg3e14f1CXTzzZdh8+er+rJLkfHvE1AQT1cXfaYV62B7hErDFwtoyws8iL3bSaIBO4SdbmZf0ykiwrenN2VVdTdp21WQPoi3qTCfsA+YRfYuGgXE7Z9cn7StUkJYJGh1SxEQlJiFSZQ0PRjGTZbERWiPp6L20rn8yf/2LCTaRimL20aek9Jn5pC91I92WlzPQCRCP2TGJWePKcr11Gaj/BrVA6TMsK4ijqvU3G+cYUrD1MS+j+jLHgu0qhLMqJjhYozOYztqlXo6hVywvr2G984fep3bv0rGr6jt6M/ZcstRdl0c7i9902G98WcSSl3Y7FrYGE9u9rXSVaz0x54XC3O/ya8rw7iFdM7vxBJARK0vq5GGzDhS9grPS/cUha/c6iJakhS9a1ZiK4bS/qFfPvOqH7K5FM0VtjLWVVS6wvrFgLSdT/tiGRJ94aqfuwocRxc4oLK+592x5nbCeSmxQxJknjWvx+228bEa9XWiMjKxXdpMuNj2v9p0iTW+fVPP44ZauixpefdPYlxJbWWojaG6RkhbWFAzTftHQ4f50BppqfYl3V/0xISimdSilSi3cTQWmuNhzb87+lbA/LWtlIQemk1GzgLr2o12rollb89lRprW6Mjp2W4vWWryTBL/NWP3NHyq9VvEyaeXWWEnMGT+FJjKP/p0jqysTlvmoPbwivfev9BIskvS95KTP7ZHPrLzRN74tLuttY6kykYK7fdyGCpwMmZm79X5YqfjH7t+eDH07wWwnMB3i3yTcreNK58W13Jt2r2GUEifVtjWg9qHjEB//Z5fiKBM2n5hestLh32ctVh12dH1bjOYZdGfQbXZFv1JpK5A1nGana4MVxK8ce9Jujrtgd1RPhZaZTrw27ojDuN2X2Nnan3tfpO9abQ1Df5NKATnPUFoXhxCPzz4P5GJ7batM3h47Escte5PVaw64gtkcT906Js9e3TLgQUxB1rcFW0asZBnxBIC8IompqZiPoZa6bhg7fG6gb4ezeTttS0V3UcjVyf6dqBrfRTc2gpZ+0NXDcQDfwhvBiQbRi2yoMdAPfVCfvpCdJn10TNVPX0RxZXzDBpWG/rT3gNbSaEj5PNbT2plNC7VqZWZfHDMsW+uXYqzU18tRC2wyOCXTVO3mPG74Lo22ZVvw2BkllTexUIST1oAxlNqmTjcRrYEnS5+CXcMCpjmGu4okAAAfmSURBVDJ+sEY9UU+LXaQvHDFLF09nC8xYasdIvGuUJFw2Lyaf1zKYE8uhrnliYoUb2WGCw6/6gXs8VcO3/rCL91pW/NKg5g66AkLSKZNn4mvsoRG/ZMPgzrfoO7YNaCRhG8n05X2aVbaIUqi4pmh5FS8ammboIhl6kVHpBVODtsBMeu8Q3UG3IYW1SMpXpnVssrUIZ72O6GNREUjLGxkWkga3R64VcdOUBNyQugGuIe9CNjeaEOqQEpvdesXv9IbBdLEcLq+uQ67MVHDCNSYool9GvuNUqnTjO9S5I/A5x/HrwxARH99GNJtoAhtWGBH/VsI6YGWUMgJYjALG4RVd4Be4vYCtdCPbDuBXjgGVGhFdxkZt46WkgtaCrFpqRE1qLSEbKljxPk8PV8Xs4zbBaTmZ+t9Ca/Ci+ShaVZEMLEu4nfQGDq+CpmVqxeuwG8QAANcwJrQ7xMU/i20CkWISENgSVVH7wOXYGKoxeaUhMU28nnLxtJUUIS9lshKahe+l06QTr2UkNol+i+WjaPkib8VvgxdUBwRVIfVgvwmNkchbvQAwCske/iYEI+fEBzdZgNQe0ANBG9UEPDVlgrXZJCjieJcu0l9LSlgX1MTcuAmCINQEnINim8zgi4xIHxBu4fhgnYsrHWzhhLcqoH2nZOmfIPIaug4vaaJt2sIGES7sI0mfy14sADgFAeom0k+i28HGBFiV0ldbLxBc0ySK1MqDbr82Y5MEEqHLYkKU3ooM82YwGYQbfeG3MNK+0wn1aGSfGqIlOGB3Eq1FOl47kYuFSNvg+4c7RmHc9EVv1EiRDC5DciAWPy9El0KEGYHuC8h2C9PqWezje1iNg2USGewcKNvRNxAKZL5rx2CsjJi0EdCAFzEruEyDPJFd74NPCTAaperuMpFIEROpZRgwYHFJc+NvVdq6TJDq0wjCHIfRPOZuM1ASXOeA7ehacoMwGWlTfFO8fQWzRRhZdGxE7s3QXVCw8AixRGODPbWwuQqJpcgYKsaeMEvSE4lOQ/zbpegpsJWDZby0XYOGJvRAamWT8CzQItJp5jLXMopIfDChtwyNZNhFxFHTonniRj4YM0TS1Fqx/IpgEDSZG2AiBm63ZARBdJnQJ27X0PxIfwf1P/RlplRJuDHesBQRWC9uNz5xyUQFCO9EHB/pwA/dHo5K+PiS0iVCmik5eEYUPqBKYinhEuZ6gImgUqvzjCDKJxPeMVcwV9FtB/BXiezbQAI3SsY4UiMKHAY/5P241AcTG+Q1ZuCHNEGQkhAUN+nRJ82UCHcLVlTfHMITISlwkkXrH6ZUpXaQzODGjY3N2TQ8r7M1CH0KKQ5GiGzlEGgYqV5QBmITArMSgTBuqPSEvjfpYKEjRXFIyHGNzoUiDRRka6j+Y1r/cjhlahJwrMsFbiowLcrKtFY0WKW/S2wPEWHXwHbpvh+0DE09iicUTNeB0ksERT3aU7EWJPFem4rJNDXIdmiWGh14pMkr64olkmch24h5TZ8aG63VOMKXwa5cuAJGtDZNM1aGfgxPKOWwOTiY7RAUN8mDCSQ6gzRaD06JGrOEFyToVpSmBvg0k43OSPcoykr9SBRSCHcVJLUiGU6g57iWpJHJ68AJeUoBd1HubJPXJjHPJiEkjUKC9y5vMshBOCIMpbgmem1IxHc5AGwSmsVpikTYkXF8srFLK4QE/17oijQMIQ6APD1UMkLq+DvZ2g5TRcUKto0mGBAfHNnZlEBCWrgfEtsGW3hQ304D7k7bRM8ghoMUTgK+VSBNgsOSSmA+mAzgErNwTZlkBk1NE10EjwgQabPVjMdtNK4iSkUiMQQYfG2c3mDLEHgGl61PObx/aQh3h2lHtHItobqlNT3H77UBESDjDQKGQa+hwd2NMEa4j2avWB7hZSU4p0N7zgzLXTyh2yPZODxhjzqqiTuCHKNFOl1o3haoKHmqhSGilG42mzzauEKJBDmVtCCMwKiP5BZ0iJpMeks2GfdxKWnpsC8MXo9We9Owksc7PZX9DtNbAjJ60bTExlDHF5d91D6CqhnjYRfTq8rG5HRvqLKCwyvqE6uxeFCKBFp1qvdo4hHIpckQeZ/FM9jsFEuNuDRRhR/MFkeC5Y166M0g4sSi4kYImAk2Y7lCyAUTISk5rS5etUlUluwNJhLSaUXe7dOjaR2pFW7CUPXdSH+EV2auFSyP+qMWe+tYxCFHuitrNKvdbCiswj4YgE5KSz06aiSfahPmrUhZeQ0XMbLZqUpfmueHp4qwG7ASgYRQSaD6vWjsOQrx1EWPqg2FBDvwWD9PJmxhAe6kTNhpw9FBORyvEMywxYZEbfVyC2odhsTEBQjHJoCxuBTaoALgksBX00570RpBciF9ahgSZEWiEbYzqTONV/doV6xerqEyRCApo91U44sQZNIGogFfY08gERJdfSvE6VsG2nvdGvfCsCMzKoNjmkbe9SCVTfClTaJcaWzBnbZNix8EVurULLhlu6kZkddDtMomvHUfu0GvaBqa1sWBh1QE/NVg0qt6Gf3qBrdsa6hctaAMhqGJLrmTZgj9emJuVw88TzWsBolELBPccpPglYjdces9uROjZc+th6tl7IFb8RiSciq9uluJ+jZ0GyWehoPbuOFcafY2jh9b+ezV5chDgOH1QBnoxYWBK/k0d9jzFrw7uSDXe5Ugw3B7kv+VLq/+Lt/lu/wnyf8HeWg68cpAU3IAAAAASUVORK5CYII=;" parent="1" vertex="1">
          <mxGeometry x="-50" y="2940" width="274" height="184" as="geometry" />
        </mxCell>
        <mxCell id="sny4thyLsxpEXio4V1Pn-6" value="&lt;p style=&quot;line-height: 140%; font-size: 30px;&quot;&gt;&lt;br&gt;&lt;/p&gt;" style="rounded=1;whiteSpace=wrap;html=1;shadow=0;glass=0;sketch=1;fillWeight=2;hachureGap=12;hachureAngle=-41;jiggle=1;curveFitting=1;simplification=0;strokeColor=none;strokeWidth=2;fontFamily=Architects Daughter;fontSource=https%3A%2F%2Ffonts.googleapis.com%2Fcss%3Ffamily%3DArchitects%2BDaughter;fontSize=30;fontColor=#666666;fillColor=#95D2F5;" parent="1" vertex="1">
          <mxGeometry x="-50" y="2940" width="270" height="190" as="geometry" />
        </mxCell>
        <mxCell id="sny4thyLsxpEXio4V1Pn-7" value="" style="shape=image;verticalLabelPosition=bottom;labelBackgroundColor=default;verticalAlign=top;aspect=fixed;imageAspect=0;image=data:image/png,iVBORw0KGgoAAAANSUhEUgAAARIAAAC4CAMAAAAYGZMtAAABO1BMVEX///83NTW75vvT7/wSh7E0MjIxLy+/vr63tra6ubkqKCgfHBwuLCz7+/sAhK+5uLgjICAAfavw8PAmJCQAAAAbGBj29vaNqLW/6//t7e0XExPn5+fv7+8faoXEw8OCgYGtrKzc3NxxcHCfnp7Q0NBSUFCTkpJ9fHxGRETLy8s8OjqnpqZvbm6bmpo4MS7C7/9bWlphYGBNS0ucrrbc9f+LiooqIBwvkbfc6vFSn8Dj7/S81+TM7Pw0PkMbc5OZw9cAd6iMvNLp/f8xRk8uTlsmXXIdcI6RvtRysMuswcqFnqpldHtTXGGx0eAWf6WTsb9SSEMnGxYAWnhth5RHUlgaPkxWZGqTpayCkJYuTVt9iY9mn7dPcH8sHRTCz9Y3iakYAAAAa5IoNDlJXmkIR11ZlK0PLzwAESIRGh9zlFhmAAAgAElEQVR4nO19CXvaSLa25Fi7AIGQbJADEogdbCDGG0mIO+3EsYM9WTq9zO25M3Nn+n7//xd8tUqlhc2x08ncnDxPDEJL1VvnvOec2sRx3+W7fJfv8l2+ywLx/uwCPKzYm59Wf5CCfD2ypMWZnwoMJPXOw5XmaxB38U+OHH5mUJBH8RMLyx+R2bBIX1iCxibVcAbsr9HCj8OPlVL4sVjiouKsoJbKBuX78uIEn3r4T9thfo0axCikDHsSfPSLvfhNm+yXAJ4ACOmrJONAN4JyutgoBgZzVjXCtK1y+LkR/OIXG/Gb11itGfjkg0I/2Ak7+yqEIlFwyYcS1n6vPAzOcXifvaRVdIPPk0BJfE2Lt7k7Yb50KI6FNj008rmvUZp7+O+A1qctwv8zXTFo83qxxVyQGRlBnTi3SPnTt4wI9wDxigwBOUX6cztHL+5+VskfTIZYTewyMYCqgbS5pvOk0eWuaTDN7wu6FRBLrkj1wLfEuNnYRcYtZfgyAW+ikUNO8ev02HtGFf0dFPH3nqZP0B+e59WB5LZ0QxBC/1KoWoIeMIBraaSeFUtQ42YzZtwSNzQIeHJgde0x9zWK3TM1qB4FC1u6XObVOrR7Hopqqjr8K0rYAvyWBb6blDOrGD58mYG9Tcin/SKDUU01sBZ6ZZ1e/ZUqidMQ9Br4OxQ16HJ7Fs/rzR/+ZvBRMa3xaNTQDAiQ4eJL/bbKlzERDSxeraFPucBxT8rV8DETw8Rue0+ll+cY+v6qRAGVN/vSUOfF/nT+FkIhtK8MgY+LIIr4oIjr7vctgddxrWsGL44RFlWJ3rhniaHfrmsCYdK2zuMPTrmcFpM4Kce+rGS6sJ6iKcL/j45EXHs9AQiLzdvfBs2aacBzLWgmDtAWoQuNoNAIPJNc1pTgKW6Z17CRDHVNIg8mahUV90+G5IdHb56Jy2q/ABNd1fFlSElcTeAFAfqWiqHTGlXKej94jgT4CatTXxUJpY50LR77w3s1k8e+lPzwaH51/cw4ShrIJnI0/aEyBrYm8r0MV+hrlCag/9GDGgNExDEyopbJW9haJqYZD2KA1I3ksS8iPzy6/fDx3ZEqfh4eSAzIOkJDtgtNSxepc64A/xOEJOCLIKAotWXwOrYs1xJSorRq8c9IAjMQjqMj/R7QCEVotEaayvOUL4FH1gOiUIA7V134CSAiqEhbOgG3sNIv9xPHHlp+mF591O4ZDoyJCLmFaAD0yEKbmg2AhzebEIi+yfMa0h0PuOxWvHCFtirufSkksJy9+SAeqQvhEERdp2DtU3n28uXLZ8+edXkBflsFjIEaPtMH5KJSC6hDRKqAdO0hUCNMuSVVELrxLkxfFY1c5MgDdy6dvbk2U9UD1XVfePbyp0/VZnPUBd/5lz9eXFw8hkL+4M8/dhEoALoFJKReHYIATAQePMj/qiAtMFseTKXBYYGHDqkA/ppx0uiVhZhTftAcOfPm2jKTzha2+zNS/VdXuUp9pO4LLy8ev3q8QF5dvNwX+FZ90m/wahouRx+vdUi3ag3rgD0EtqK2fBiYwLNNGJLYwD+ZMV+b6WvAKUXMxn1AQLzfVENMgCE8+/HHUAWupMpgfLT/jFGKV1ASqABQ9IYiSU9+/uX6bRIXAT1IHOLoxIcKo7Y6XGEEc0gMRKErAvuJmo0HVEjQI3zbfLCQze61tUgoCg3l2a8XbDXff8hVeo2j/YvnNzc32e00AT/cPH+OELrgj+SBlHsC5effPnVp1MY8oosr17SgwlQ7mQEugtoHSbMDiFgcRyP5ATzRjHRRVh/KG/utMsunhCcitvD8H38FvqH5bv8CV/40wOR0ATjP/0suN6UnVH7+AGCJKEt3ZwtwSqWrQoWZ9CaGig7rQwCED+xK6Ebq67VNqEETVnFqvTUHkDYUeWwxCgLhuPjx+lWAxc1N/vjycnsOysn//usNrnF2dkw+vD5NV5jt7PnfDEP2Akx2dnaurschKvovuwfzn8ca+a6SMojjDorQALfKbCknUEUA+7CGMqo+hNkUBqoZNJ3AE2O5aGE0UG2zU3zqoCw8385e4mOzGUYif7YIkvz0/GZfLRw+ejp9QzHZub368JESiyjoSWcvthUuU9Mg3bAaIOtIhfQRO1DWbT1At71TLasBHro+7P5ItKP63zdBa5/hc+2//wq/nSJMsq/P8ujHU45Acnwch4R7vn1z1OAeQYGw7GC53bn+qC5KIsWxwlVE5Id7zKhPG3dC6COGWn1rdP89S14/sBhBVBu/PRm8hHA8B2iMZrTts+f09KssVos8PkpUgUCSn8aUJXta+Mf29qvf5cNHROaz2yuCytV1NzU2FoY5dwhNSey6gQbk2sS49JEUFr5XHN07tXqjMm0rUe1e/wxUu/34FXEl/zzJ06r9Ri+Yo0P5kxn4m73kXqMzOQxJ/nyaj0Eyd+EPF/sBJE+3drfmt1RXfnmbcEEwCdKRAoljmSDiTUzaTaWOpCBQLQzLfemew1avTwEBBjP6BTuF90GF/uUHdvCMXvI3bCqXXBb9D0HLzjAk2WPuMqYlee4T+nv0hkLyaAtIiEqqquDvQtv1uUzBk6t8GBqYLSkgF9fQatL9OhunZgWAdK8RHm+mh1dhhR4P5rSK/0MvuiJHoLoASDgAWt7GkORPuBiTZC/tf6EPF/1DFhIkM6IqOx/a6cmUoOq6qmlmCJmgNgMM/IZhVO8XEbta1umDPn7AeIASHz4Pa3SzzxFDyFN2df6dpweOsxCSGfofqkd+xoWGhv7LvzhzH+MDR4GW7AaYMKqymGpZ0duuQjDwR5auD+4XkbpBQwD17dXtzpMnU1Jklg3+8DBX5EE8wjXaw/G7C26WR7Qx46Z5CMZZHigHhAS4HcIswIIAQtnsbDrlGkSpfpqGZBLKLlWV26u3q0ERqxXMpSW3oYkAn3vlEUkwKSCfACA7t0GJ5ywkF1WkJrC2nPtuH4Tx26fcCdQBeOg0D/Xj+JjDkIAWO8YAnp8BRE5ReT1yu/dv0iBhVOX26tNKULqjnpJzq20NBFFqP3efvsZrEIcmIA3ZmW3tBnr9miXIm79z0A9DsrD/2H7+HBMrd5mHxMmdvYBQzWYIkhdTqDHIZk4gNHnSgm/w/Z7/nCQTqioBKG9X9VeJqmmq8CRRbCr3GI9kJoRVQ0C2ntLyHkZ9xk91DnsUbkK1BxrRPJ8FsQh3CSE5Q/Z8CRUGkjHUnHPw9x/0cfi6m8WQQPsJQFnca8WIYI5k+R5jVsVUCSAfISDzLch3ISTRyPz574AyQNjBlS5O8+QXyB1nx3kQvNlBAMedQ6U4zUIVwST7nhYZB8DZZZCE/gcS7UpQ9PZAUlbM4NpASiMaBHY/IECwLIJk+58D7hJyazN/eXKeJajA6p/nkzfPI3LJoJMek34fl0DyJM3lpIFSHy8HRRcmknyPRtPTsM2I+vVOCMjW1qNFkLx6V8gABOz3wI2ccdPLfDaL2ZabJuh+inwPie2z7+Bnb/IH8cpvVkKytYVC/SdSs7tw/FDQ+aqiyPeX+jpjg5LIDuSQrdWQbL9EfcJ14ni5zBwYUP489fY4V0YuK4u4pl1+d0T7Ef4WPCLucuKcoijShE8DBaRg46akyPfYzzogtKp3f7lFpJoGSTwkv/k7bBIccOWRYz17vf1ivvAh0Otk88dzG3U10Z4VQEBrQIK9j5zLSUpViHkfQTfbrR4ApHJ/4ZnTMImKAJu53Yqq72JItv8LXFt5Qdp6G5kGd7IYkuNsfvs1inX9P5i7rAkJBOUJwESRlElbFQUooqirqjCqupKUkyv3OHjTIwme2gAGO4/bc1DeR+fxxA3V/jJwwbPlj7kENAwxy3A2tRkkx4drQgKo3lEAKDlJqreGjUZj2K9NBgAOgIfcuT8/w9kjyiKTJxESSUAyi0MCW9wGDoZ+P10WRZ9h9ZmDc/7yirlL9nR9SLYAK+fkHKAUKgpgVFmuePcZv1dMnaiIK9+mlSKEZCtuOBARPgNTGyz5/HTF084g+9Yu2Jtkz0NIFnucABJg5hW33gO6oeSAcsiy0nHut1+kioaKgIpUpVzCZrCyhm0YhST7b3C9v98C/uT08vz8/PVsNp8vJ7gpRGTyU/Q2s0frQwIr7w8NVTW7/UHF973SfffAl8ZkHACk1pWz9FKEkBxGe0+zO+AOs4uau7YVn0MlGvwRuct2fhpCsgoRCImLmQ+6XWXlEzcWBbteQW1JIC9Y0EQMJNHAJPsE3OJy++J3A0YDayjvHHJP7yfgiGFUF9zmcCNIvCL1vLquCdLKh24mVQuHq926Ajz6AiVhMuEYv2ZdDuX8j/fLdeBIzudnaz/5bHqZxq6rIeG4EclL2/Vma6gXG/c5LFFoYKNRRzmUOi5ke6bE+QQkEKTn+0bDgclu9vJkjQefzEAOGICbPQ/vv9LhbHGeRgM0WQJ+x20V729SWgcPeQt6U8J9cguLERb5cDsBCQLp5uVRcQIYZTpboSj29PVpxGoAlWxtAMkuN6R9SQLf68gwHFFq95TW9LCnAbyaw3nBIruJkEkkfs33QB3zKGnJX/TXWXfWOc2+yMc9OWM3Kx3OYSdQEl4we1zBV1yP8+7F69RweGbWlBwZM1tsxyEkUcvJ12Hakt0+PZ+uzyKF+WWeRSV7uQmV/LDPZjdmG7QmQOU+4ta9NqIRURwoQSflkhZiLId1w/kBhOT09XR6cnKW2SBcmp6GoGxkNwdNlWdFKKOFS87nW46HO3f1Btslt6QkYaEjaU52Ag0HBa152PLH//2hOlmvdCeXedphf7g+JLvzo3ingG5N7sNqcohGYDCihLfLLCkKYzmPWEjglDDWkkDivxSR+clJiSrT2SkeGmRC15V2s9tOjP0JgmrUPzueb6JoROTrkX7sZZAwkQlLsHkICWMD2VWp8MkLoE2vLoajlgu+TdEg1+H6kBx8UGOAiO12V1UtLbE0cjPBxKoO5WiXnL2sMEyxnwZqQfrPzmjnQP50JcmSEb/nv/6+D8NOYD2v2Vuv0JHZuxgiQxCYKHJv0GwXP0NTbBSfCepEig0QLtMS1nICNQmT3nPcfQhz/8x8uaLQUdDsxTsY3E23GURW2k185qMwlGAmnFOkEteZrJ9pRcVBvblhMLImJBE1IbzI9LGC1Cd/CZppepk/XlGAk8DMLv4OHBZrNiuU5OBjYsBPrTuO4/mdnKsAfJ078ayHpliZfSWXpMGl5WHVhAwFMwU4ebF9ApwIHLdYqL/2NI7JzU9/8dZXkoNrNY4I4BKiGbbj33HldAVOcBMFEIyklHx55MgU/RCN7t6w156fzbbzeMoEtygnPs+fI645C8P59ywiy5Xk4CrufwU0FSl8lu3cwXLgvHzEq6mALm8l1g+jEPYxe+1f8+EkAm6Sdncgx/n86ZTFJH++trs5uH0XR2Q40nVe/7yVnwMLJnmTReODi3OchJrAeO09Q0bOP0hsjhDBkLCWOUVGA6gVBHXnJxSTSJS2XEkSzgY0rSzlqoKujz8jKJloqH81tzA7Ww4JqyawK+nmL+GVfVJF+Nn9X1T/WdBLkIHTCJAfQpEvHMc5Q2lBlr3lUiXZnSGrEUUxdDp6MycruZaqju8cvaJVPVVpyfjgCn5jy/8IRFn/HNH2yf1rOyBc7/+hmRJnLwBvZBAQMCU8zqNx0WMS0WXRVK35ukwC4ngBDrr1W63RWCVThQXRLviy4g617h29b99EKpLGq1SWu+EoJsATP//dxBNP7SJGBOpFRrzBlX8BHjRHajM9hfqR3T7jInOz8q/XNRugI5BJW2SQot7qqnQZU8aXpaZo3CnrG6kiYJEV8y5WBAZRPc9uv9o/Auzkcty/0aAw6mbsP0cTTs6zcO7AKcSFm784gZMu8KSTMAFm+wSWms3BLVpJqTfheA2OzHp9URd4Da6gtjuy3C/eYSR4qKojObdqxHSVmkToZJ7fvvl1f/9IhLMCILWeg7tL75GyQG1AM9Ugrcyg0eS38YSbIB2KIrIkADjYwcwqjNFwje14FTmHhkCFMppCX1IUN7ZKa7VkxkZ3sEpFoByuwORRBBMUndyYMp4icQy0w/4JVBZNIoFzKsh8RqAxJ3gSRfY4Q0wnpiNL1PPgA/U14ZqSDEBFkQYNtYyR8GWvtlkHrN3WWmsOqq/o6NuNYLKFfOmrv2D3Ckf+qjd46h6G5Bjhg+czznBPQPbkPJsISJbOoLgOIzSLGaCwPaAq9QbZmaKQ86S0BeULEeGH7roTUVaZTgSTR09RGPtHBVYbRmneexStzfPB3GhoRTABOjmj2TJckpKfRRBZTCS78zY7l6QcGbRxJFmqt8lGSn6nUF3b8ZRGrrT+RJQV8VqUYh89gvaAAhQ4iRGFJ/kzG+XFrxGVwtwQ6sxxSCLg39aaiABijWZ6ZTdSWACKLxGLKVU4d80sx+54srSB415FJ1FMDs9BJP++AzsOsZIAWj0lk5KQcznGwUj+JPA1+dMoqkt05DreP8JbMcpwlE6mQ+KKju2t2fLehjMeN8RkCxgPnEMPylVDaoFZIz/F6yryZxwObMnKk2w2ZjQLETmYdWNdz2KbV8txyvDCOb9eKbMWJv7GLnszTKCi5NFotfMe9aKQpVonZBEO0ZYsQiqbP326HiK7Wx/exSZfNXKS5FbbfHwXinAQx3a4NaZV3CVhXsUnuzFMnp6+gMWsR4Z4yOIb4Gzwh+NjCMg0BsgiRBIqAnfzgF1oSqUzjM8FZ1ypw9kPs3J8ld/ZitXrcPpXUKzMMdt5Twc38iQSyQJA5nFAFnjfg61P7xLTW8Wa5DleR85lOks6nx8IEW5laB83nkeHj0A0b28zmBxHsAGZ3mVCQxYgsrv1C+toBLKgQBCwxXg5j/MX6/6qETbvzqNgGzpjBEsmc5wY70X6AWK1+WECkHSj2d3dEVmbEcZyC8+INmivhuN/jjJId18UumoEIYkJ7JY9PabT1sjctXz29Hyagke6igBAunS7HLLeoyFJvS5azRduwujYnH3nXhJ7qNfviMrZiug+RVEAKIePprPXl5enQC4vX8+m4EgKHumJHgsIr4+7SDtUxZflMQxirdB5ZmzoXu4kBY/r8EVhIi25vgByy5xbb05aSKrNnlvxkN1u6I5ZYIgsOiFNRXa3roRwQyWxVQE5DDAhtcfZFWUEPsV3KbzjPMZMp1NQxmXLUofVutzxPWdvb68Exz4kgEJrNBYtSzMMU1X1QFTT1CyjUXW9zA/LNWV3IShLJQWQ3YP5dWThuF5VQGI30QW005Gv1AAmRmQ9vX1nRnFkxcu1RBWIaRiaZgHRKApLtnUSdFUzhvU3uwfLYLkDKElAdne3dj4eRRcLiCO/5Ek5ty0iIDylZdLtjwJM7s6xHoxw6q2GiDAQNtm/SFSPjj7tzHeXobIZKAlAdnd3Z9dHyS3I0IZ7jgJMRodVLykTM9giicgmU1oSoEiwey7Xa7b6w3FX0E0TKY1J7QV8hgfStUZU37U/3G4dLMbl6bqoPE3c4mB39oE/SlvKaGAy7Si1Msr1ChLAxLrH5UcFgAqdeq4oOVl2US9mIDnZ7dWb1dpQSFtqKehHR2+vZruLYVkDlQQeuwdbt9c8s6+SIIrhw+nGnp5Sxdt42lLTFPRlldxYMiWvI8lUcnj+ucweQIj1WunLT0UAy6er2dZCatldAsvTuL0Ac5lffYruyia0a61+N+DYYHdbZYJ3DoaYJHcM+3yxC47jeZ4PxWPF9zsViFhO6jFEJ4gsQIBa9Le/ACNaqC4Al6cxMFK0Y3e+A9Qjro86XEUiNWlHmumSIhekKu47ywBMrC++q15mz+sowcxSXR33+90ov0Bt6V4DdQENvXJOZkI1ABq3v7zdT93CUOwrqEmqWFGEYFdpWyKbUUNMzIfZyGe5OHR5TrcqQ+pJTBCDM/qP3rWvr27nsMnXgAZgcQAXzH94u//uKGULDixwW2nbUxTgeZHlBFxqV8iQXKbS1P6M3W4HeAedbhMthpJzLUZr1HBbKwHqy1H37Yer29kc2NIBRici4NjBwdZ8tgM3Cjs6SttCjYkKVJz1e7ncEBqPGFbe9oluAD0pfvm3fxSgkojiRAJuSPH2Mpk6WZ8CA2C31xxFluoCYEDsAqT99vr6w9XV1c7OLRC409PVhw/Xnz524Y8Qi9R4SOQbw0ZXxSwrCKTeFaUPn8kkNTbtS8tUJncZ2/s8qem8YPZluHwQlwNBIuotGa2TUiR3nKb50IPCCEfFCJE4ZwESASJ9NM7rTvDUZINyp4cCeCb3DUPVjDTRvjCdSBawmbqkyBJtGLjaQx3K4JCc6/gdRVYad9gAOISBAakr4VBAkZpwu70QAwdhYqUl8Rmp+mXppKQJag3WPiiNDeelADMCVoRbp9CRk4y7tgi1YUBHUEmcQqEE+w/lBuAPK8jYSxATMfU9FRmp9UU3QW6rQEVy7FiYawoiPMS0mDdImUqXDgA7SwaJ3qzINZXuMB6sRAOOZqQHISuQPfg9VU2AU36wXQZTpF9sQX1gBwaAR3QlOToxpUNWWuuUasVuqDh6EIOJIK5p1WjsRU8ANkncrNhn3+agDEWe2fG5AL6L6SZiV9acqn8PMilKIG+OMHql3JUTS/ld7KfbE7eBKio2lDqtuDBw+8RHtVA8Kk3gT8JwiM8wXTh7aISPsTVz5K5gMAsYS8A+F+R5hc7nz5tfT+piyYnNI+fGbYBIXH+hSggmUCgFmZDQzSnUltSelJNqKK7oV/AsGfyb2msh3YJ9QjZ2s3gj20CcuhlRC8dN9KRR2fPk9B/uWdw+V3JjU7ckw8klph1U4O7o7R700xVcW0XpYUjMpiR3OsoYTi4bKDkQ13AZTxohd1JpIkzQ/BjsZo0o1l5Nt9hneXVVW7DEs+R8iehE7nF2YvRdL3WSEzGAkqgjBftpUEu9JsmZJjILvY+m9th11GsaaL0MsRAdYF0CTV4caDt4v/BQOoIaiU29ibHovTfOXsp+/PcsFZ+z5fhjmr6dfBFCz+TNKvVBJiJMh0OkIrQJ7RSAmqhuuFME/FVzbJxl4+RlL9cQxfiod1WNQtCpxSZQhFJ6cDbxSsDC409xZC7Zub9nCfpAypE1gSavwg2qbAsTCV0Y54LjjLlDszJlEI5D9SGEsQfoU4s90dFjfrfSWPjagXvciSJVQMBsJ60zx6XM2Rip3dArZwyhDcwG0QtwMfAjFl1QGRqAq3tVGGBVmuHG+05PN+IBxkSLhmG2nPZ6BiwPriYpY0Ve2oblbrnBeOWCpg5y4Lwq3IG1zcw0buoqU13boF2HnZYadCt7TS0enzpWrC+xNCg+tDoskkwyl7LtlNdUOsWaz4SynjWWYCwB0zu1x8xG9yyVjSm6AoAENWsFRmR0N8VaMb4zzSj+rhuv9gCdi3eXQlI39arNhi6d8gCu7YGGATIWmTm/G9k0H/Crjl6+wGVkENK45HClGzcLqRw/0ul+TS8pTGpOrcnlZEaT3S5SEuiChei8yWakm7Qv8uqAbLPfVINOxIwbZ88M89o6IvJX9NqopI706lwnxwI1GSAcQCAKHE+EK/0iu7tICwQhdPdrZygGfqWEFoOyUivHSa0wue8tOe5RfBeEnRGg+h6sOLAboSHJEaXKsK/ag/SrB2YlmXrgV/y4CijlRKzubTLP98tKqcIVYg0m+7C9mzAQjWdCQ3YCFYCkG15a09Xgsxu7414xCUDFvVuBH1wyHpeJZaYlG1VIEEBIEtfuARthVHVhGJ7gqVrg3e14f1CXTzzZdh8+er+rJLkfHvE1AQT1cXfaYV62B7hErDFwtoyws8iL3bSaIBO4SdbmZf0ykiwrenN2VVdTdp21WQPoi3qTCfsA+YRfYuGgXE7Z9cn7StUkJYJGh1SxEQlJiFSZQ0PRjGTZbERWiPp6L20rn8yf/2LCTaRimL20aek9Jn5pC91I92WlzPQCRCP2TGJWePKcr11Gaj/BrVA6TMsK4ijqvU3G+cYUrD1MS+j+jLHgu0qhLMqJjhYozOYztqlXo6hVywvr2G984fep3bv0rGr6jt6M/ZcstRdl0c7i9902G98WcSSl3Y7FrYGE9u9rXSVaz0x54XC3O/ya8rw7iFdM7vxBJARK0vq5GGzDhS9grPS/cUha/c6iJakhS9a1ZiK4bS/qFfPvOqH7K5FM0VtjLWVVS6wvrFgLSdT/tiGRJ94aqfuwocRxc4oLK+592x5nbCeSmxQxJknjWvx+228bEa9XWiMjKxXdpMuNj2v9p0iTW+fVPP44ZauixpefdPYlxJbWWojaG6RkhbWFAzTftHQ4f50BppqfYl3V/0xISimdSilSi3cTQWmuNhzb87+lbA/LWtlIQemk1GzgLr2o12rollb89lRprW6Mjp2W4vWWryTBL/NWP3NHyq9VvEyaeXWWEnMGT+FJjKP/p0jqysTlvmoPbwivfev9BIskvS95KTP7ZHPrLzRN74tLuttY6kykYK7fdyGCpwMmZm79X5YqfjH7t+eDH07wWwnMB3i3yTcreNK58W13Jt2r2GUEifVtjWg9qHjEB//Z5fiKBM2n5hestLh32ctVh12dH1bjOYZdGfQbXZFv1JpK5A1nGana4MVxK8ce9Jujrtgd1RPhZaZTrw27ojDuN2X2Nnan3tfpO9abQ1Df5NKATnPUFoXhxCPzz4P5GJ7batM3h47Escte5PVaw64gtkcT906Js9e3TLgQUxB1rcFW0asZBnxBIC8IompqZiPoZa6bhg7fG6gb4ezeTttS0V3UcjVyf6dqBrfRTc2gpZ+0NXDcQDfwhvBiQbRi2yoMdAPfVCfvpCdJn10TNVPX0RxZXzDBpWG/rT3gNbSaEj5PNbT2plNC7VqZWZfHDMsW+uXYqzU18tRC2wyOCXTVO3mPG74Lo22ZVvw2BkllTexUIST1oAxlNqmTjcRrYEnS5+CXcMCpjmGu4okAAAfmSURBVDJ+sEY9UU+LXaQvHDFLF09nC8xYasdIvGuUJFw2Lyaf1zKYE8uhrnliYoUb2WGCw6/6gXs8VcO3/rCL91pW/NKg5g66AkLSKZNn4mvsoRG/ZMPgzrfoO7YNaCRhG8n05X2aVbaIUqi4pmh5FS8ammboIhl6kVHpBVODtsBMeu8Q3UG3IYW1SMpXpnVssrUIZ72O6GNREUjLGxkWkga3R64VcdOUBNyQugGuIe9CNjeaEOqQEpvdesXv9IbBdLEcLq+uQ67MVHDCNSYool9GvuNUqnTjO9S5I/A5x/HrwxARH99GNJtoAhtWGBH/VsI6YGWUMgJYjALG4RVd4Be4vYCtdCPbDuBXjgGVGhFdxkZt46WkgtaCrFpqRE1qLSEbKljxPk8PV8Xs4zbBaTmZ+t9Ca/Ci+ShaVZEMLEu4nfQGDq+CpmVqxeuwG8QAANcwJrQ7xMU/i20CkWISENgSVVH7wOXYGKoxeaUhMU28nnLxtJUUIS9lshKahe+l06QTr2UkNol+i+WjaPkib8VvgxdUBwRVIfVgvwmNkchbvQAwCske/iYEI+fEBzdZgNQe0ANBG9UEPDVlgrXZJCjieJcu0l9LSlgX1MTcuAmCINQEnINim8zgi4xIHxBu4fhgnYsrHWzhhLcqoH2nZOmfIPIaug4vaaJt2sIGES7sI0mfy14sADgFAeom0k+i28HGBFiV0ldbLxBc0ySK1MqDbr82Y5MEEqHLYkKU3ooM82YwGYQbfeG3MNK+0wn1aGSfGqIlOGB3Eq1FOl47kYuFSNvg+4c7RmHc9EVv1EiRDC5DciAWPy9El0KEGYHuC8h2C9PqWezje1iNg2USGewcKNvRNxAKZL5rx2CsjJi0EdCAFzEruEyDPJFd74NPCTAaperuMpFIEROpZRgwYHFJc+NvVdq6TJDq0wjCHIfRPOZuM1ASXOeA7ehacoMwGWlTfFO8fQWzRRhZdGxE7s3QXVCw8AixRGODPbWwuQqJpcgYKsaeMEvSE4lOQ/zbpegpsJWDZby0XYOGJvRAamWT8CzQItJp5jLXMopIfDChtwyNZNhFxFHTonniRj4YM0TS1Fqx/IpgEDSZG2AiBm63ZARBdJnQJ27X0PxIfwf1P/RlplRJuDHesBQRWC9uNz5xyUQFCO9EHB/pwA/dHo5K+PiS0iVCmik5eEYUPqBKYinhEuZ6gImgUqvzjCDKJxPeMVcwV9FtB/BXiezbQAI3SsY4UiMKHAY/5P241AcTG+Q1ZuCHNEGQkhAUN+nRJ82UCHcLVlTfHMITISlwkkXrH6ZUpXaQzODGjY3N2TQ8r7M1CH0KKQ5GiGzlEGgYqV5QBmITArMSgTBuqPSEvjfpYKEjRXFIyHGNzoUiDRRka6j+Y1r/cjhlahJwrMsFbiowLcrKtFY0WKW/S2wPEWHXwHbpvh+0DE09iicUTNeB0ksERT3aU7EWJPFem4rJNDXIdmiWGh14pMkr64olkmch24h5TZ8aG63VOMKXwa5cuAJGtDZNM1aGfgxPKOWwOTiY7RAUN8mDCSQ6gzRaD06JGrOEFyToVpSmBvg0k43OSPcoykr9SBRSCHcVJLUiGU6g57iWpJHJ68AJeUoBd1HubJPXJjHPJiEkjUKC9y5vMshBOCIMpbgmem1IxHc5AGwSmsVpikTYkXF8srFLK4QE/17oijQMIQ6APD1UMkLq+DvZ2g5TRcUKto0mGBAfHNnZlEBCWrgfEtsGW3hQ304D7k7bRM8ghoMUTgK+VSBNgsOSSmA+mAzgErNwTZlkBk1NE10EjwgQabPVjMdtNK4iSkUiMQQYfG2c3mDLEHgGl61PObx/aQh3h2lHtHItobqlNT3H77UBESDjDQKGQa+hwd2NMEa4j2avWB7hZSU4p0N7zgzLXTyh2yPZODxhjzqqiTuCHKNFOl1o3haoKHmqhSGilG42mzzauEKJBDmVtCCMwKiP5BZ0iJpMeks2GfdxKWnpsC8MXo9We9Owksc7PZX9DtNbAjJ60bTExlDHF5d91D6CqhnjYRfTq8rG5HRvqLKCwyvqE6uxeFCKBFp1qvdo4hHIpckQeZ/FM9jsFEuNuDRRhR/MFkeC5Y166M0g4sSi4kYImAk2Y7lCyAUTISk5rS5etUlUluwNJhLSaUXe7dOjaR2pFW7CUPXdSH+EV2auFSyP+qMWe+tYxCFHuitrNKvdbCiswj4YgE5KSz06aiSfahPmrUhZeQ0XMbLZqUpfmueHp4qwG7ASgYRQSaD6vWjsOQrx1EWPqg2FBDvwWD9PJmxhAe6kTNhpw9FBORyvEMywxYZEbfVyC2odhsTEBQjHJoCxuBTaoALgksBX00570RpBciF9ahgSZEWiEbYzqTONV/doV6xerqEyRCApo91U44sQZNIGogFfY08gERJdfSvE6VsG2nvdGvfCsCMzKoNjmkbe9SCVTfClTaJcaWzBnbZNix8EVurULLhlu6kZkddDtMomvHUfu0GvaBqa1sWBh1QE/NVg0qt6Gf3qBrdsa6hctaAMhqGJLrmTZgj9emJuVw88TzWsBolELBPccpPglYjdces9uROjZc+th6tl7IFb8RiSciq9uluJ+jZ0GyWehoPbuOFcafY2jh9b+ezV5chDgOH1QBnoxYWBK/k0d9jzFrw7uSDXe5Ugw3B7kv+VLq/+Lt/lu/wnyf8HeWg68cpAU3IAAAAASUVORK5CYII=;" parent="1" vertex="1">
          <mxGeometry x="1230" y="2937" width="274" height="184" as="geometry" />
        </mxCell>
        <mxCell id="sny4thyLsxpEXio4V1Pn-8" value="&lt;p style=&quot;line-height: 140%; font-size: 30px;&quot;&gt;&lt;br&gt;&lt;/p&gt;" style="rounded=1;whiteSpace=wrap;html=1;shadow=0;glass=0;sketch=1;fillWeight=2;hachureGap=12;hachureAngle=-41;jiggle=1;curveFitting=1;simplification=0;strokeColor=none;strokeWidth=2;fontFamily=Architects Daughter;fontSource=https%3A%2F%2Ffonts.googleapis.com%2Fcss%3Ffamily%3DArchitects%2BDaughter;fontSize=30;fontColor=#666666;fillColor=#95D2F5;" parent="1" vertex="1">
          <mxGeometry x="1230" y="2937" width="270" height="190" as="geometry" />
        </mxCell>
        <mxCell id="sny4thyLsxpEXio4V1Pn-13" value="" style="edgeStyle=orthogonalEdgeStyle;rounded=0;sketch=1;hachureGap=4;jiggle=2;curveFitting=1;orthogonalLoop=1;jettySize=auto;html=1;fontFamily=Architects Daughter;fontSource=https%3A%2F%2Ffonts.googleapis.com%2Fcss%3Ffamily%3DArchitects%2BDaughter;fontSize=16;entryX=-0.018;entryY=0.62;entryDx=0;entryDy=0;entryPerimeter=0;fontColor=#FF6666;strokeColor=#333333;exitX=0.527;exitY=-0.005;exitDx=0;exitDy=0;exitPerimeter=0;" parent="1" source="sny4thyLsxpEXio4V1Pn-6" edge="1">
          <mxGeometry relative="1" as="geometry">
            <mxPoint x="90" y="2930" as="sourcePoint" />
            <mxPoint x="290" y="2639" as="targetPoint" />
            <Array as="points">
              <mxPoint x="90" y="2939" />
              <mxPoint x="90" y="2639" />
            </Array>
          </mxGeometry>
        </mxCell>
        <mxCell id="sny4thyLsxpEXio4V1Pn-16" value="" style="edgeStyle=orthogonalEdgeStyle;rounded=0;sketch=1;hachureGap=4;jiggle=2;curveFitting=1;orthogonalLoop=1;jettySize=auto;html=1;fontFamily=Architects Daughter;fontSource=https%3A%2F%2Ffonts.googleapis.com%2Fcss%3Ffamily%3DArchitects%2BDaughter;fontSize=16;entryX=0.594;entryY=0.005;entryDx=0;entryDy=0;entryPerimeter=0;" parent="1" target="sny4thyLsxpEXio4V1Pn-8" edge="1">
          <mxGeometry relative="1" as="geometry">
            <mxPoint x="1198" y="2620" as="sourcePoint" />
            <mxPoint x="1347.63" y="2937" as="targetPoint" />
            <Array as="points">
              <mxPoint x="1198" y="2600" />
              <mxPoint x="1390" y="2600" />
            </Array>
          </mxGeometry>
        </mxCell>
        <mxCell id="sny4thyLsxpEXio4V1Pn-18" value="" style="edgeStyle=orthogonalEdgeStyle;rounded=0;sketch=1;hachureGap=4;jiggle=2;curveFitting=1;orthogonalLoop=1;jettySize=auto;html=1;fontFamily=Architects Daughter;fontSource=https%3A%2F%2Ffonts.googleapis.com%2Fcss%3Ffamily%3DArchitects%2BDaughter;fontSize=16;strokeColor=#4D4D4D;startArrow=none;startFill=0;endArrow=classic;endFill=1;fontColor=#4D4D4D;" parent="1" edge="1">
          <mxGeometry relative="1" as="geometry">
            <mxPoint x="1365" y="2937" as="sourcePoint" />
            <mxPoint x="1197.63" y="2620" as="targetPoint" />
            <Array as="points">
              <mxPoint x="1370" y="2937" />
              <mxPoint x="1370" y="2620" />
            </Array>
          </mxGeometry>
        </mxCell>
        <mxCell id="sny4thyLsxpEXio4V1Pn-22" value="&lt;font color=&quot;#ff6666&quot;&gt;返回数据&lt;/font&gt;" style="text;html=1;strokeColor=none;fillColor=none;align=center;verticalAlign=middle;whiteSpace=wrap;rounded=0;sketch=1;fontSize=30;fontColor=#4D4D4D;" parent="1" vertex="1">
          <mxGeometry x="491.8700000000001" y="2753.5" width="175.42" height="50" as="geometry" />
        </mxCell>
        <mxCell id="sny4thyLsxpEXio4V1Pn-23" value="&lt;font color=&quot;#ff6666&quot;&gt;返回数据&lt;/font&gt;" style="text;html=1;strokeColor=none;fillColor=none;align=center;verticalAlign=middle;whiteSpace=wrap;rounded=0;sketch=1;fontSize=30;fontColor=#4D4D4D;" parent="1" vertex="1">
          <mxGeometry x="802.2900000000002" y="2753.5" width="175.42" height="50" as="geometry" />
        </mxCell>
        <mxCell id="7son08r-buFPJ92edeVw-1" value="" style="shape=image;verticalLabelPosition=bottom;labelBackgroundColor=default;verticalAlign=top;aspect=fixed;imageAspect=0;image=data:image/png,iVBORw0KGgoAAAANSUhEUgAAAOEAAADhCAMAAAAJbSJIAAAAYFBMVEX/////Rz7/RTz/4N//NSn/OC3/3dz/NCj/OzH/4d//PjT/LyL/QTf/cmz/TEP/SUD/Vk7/m5f/r6z/gXz/YFn/6+r/d3H/c23/y8n/uLX/l5P/0c//kIv/UUn/wL7/k4/7pk/6AAAHZklEQVR4nO2dB3qrOhCFbRwCxr0mbsn+d/lATnF8gZGm6vHpLGDg8IsZgdpolJSUlJSUlJSUlJSUlMSk6Xa3X67Wi8279Z04vW8W69Vyv9tOmAKe1kU5z2rNqzy/HpiiYnW4vuTV/XbKYn1iiHhZ5dn4R1k1OzMExes8qx5vJ19eqBE/Zw8BncqbHcbDrXy6m2z2SQt5zMf/aF5ytf9QTcvnx10rP1JCLp4f2f25Fa9c9xyk16LFYN2oFviQb60Ga4svFhZfX1oN1hbfsCHbCVpZ7DSIp9ht0MJij0GsxT6D+hZ7DeIs9hvUTjcdSYZiETKoSxEgiLEIG9SkCBIMt9hVJmwoehB0FgOKhg9BZ1GFohdBZ9Gb4tHTYNPzlbf4mnsarC16duA+W/qinRbFG6o3wUa5Vzf8MvOPKG/R8x381sznY2oZFFK4oQY00fvdLOGYp4A2eg8qmG6CmqhTDn/130JjClIMJdjczBoKOilCY8pRDCdYq4A+z7feleLRoki6CUwyXyq3QNjdHBFVhCKK4Hg83wFx96iwAu8i4h2838keCBxYK34DM1NEEvSoFytkYGaKWIL1fayA0GtsZNZ0g0sy99uAysUClWmYLRIMjufQB8amQsdma6gUg+NqA0R/D+20/bHIkm7QScYpB8fH0K+4s8jQUEkE63YEXuBKaKYcFGkEx9UVvMIh6PPwX4tEijSC9Qeix8DYBtMzfbBIokgkOC6hPON0wxcMZ5GQUakE5zevyxzaRulCLKIbKtVgVnoO3k6oF0JaJBt8mfpeakIqGViLZIN5wNg02SIi3VCTTJBBC4qqBFksBlJUJugsqqYbepJBzA/RpGhA0FlUo2hC0FlUomhE0FlUoWhG0FlUKBrqZeLJIvXyYEMlN1EKQWdRmKIxQRaLvRQNk8yDRcF0Y5pkHiyKUYyCoLMoRDESgs6iCMVoCDqLAhQjIugssheNCMrEk0XmJx4ZQWeRSvHPT8boCLJYfJglEVWSebBIfu7fFCNsol8WmShGStBZZHl7oiXoLDKU/ogJOovU2ys/qKMi4LQuqkUqRapBWYLOIvEtokn0HfyxSKRIMihP0Fk0o6hC0Fk0oqhE0M6iokGbhqrWRL8sqlNUJegsKlNUJugsqlJUJ+gsKlI0IOgsqlE0IegsKlE0IugsqlA0I6hl0dSgRkM1bKJfFoUpGhN0FkUpmhN0FgUpRkCwkRzFKAg2kqIYCcFGMhSjIdhIgmJEBBvxW4zMIL/F6AxyW4zQIG+6iSrJ/IqPYpQEG3FRjJRgIx6K0RJsxEExYoKNJhXVYlZFbXA0+qCt7RuPyw9rC/2aEAdAmyHUqBlOiYPgzmLhvQJNX4PPpdRpDD8WpScjYDVl7NNE2VAH3y8d/LcFdSrXPxZjo8j/pyYyi4P/T8NVJp4sxlP6B/+/VIagsxhH6R/8uIUcQWfRnuLgxw+5C32LRdu6qDEbw9Qifme8IIsK2zF3aPDzaQY/J0q2TDxZtCgag5+bSF35EmxRm+Lg5wjLF/oWi5qnogx+rr4FQWdRi+Lg18zodNU6LGp04DQLfYtF+aIx+PWH5JXA1QdxlFj4XaRvHjFhWi4tJPoi5SnHY5I7MoSDoIsTK0W+vSxs9kcFRd/dZMoYS4AitdD/bVq8O6WwiLzVwNPANXVInJ0iL0H3yOKiyE2wEZkiZweOTLC1SUVUNHgKfYvFWEq/3H4ykVCU3E8mitIvuxW81Qb3nAaBhmROkb5DLDSfYiq+y22/QYVUYEpRqkz8Fb30oy1qbTtmlm70th0zKv2aG8eZUNTdOM6AouKZL07kohFKUX9/UeWiYbF5o+q7aLNDrCJF+hc97qOGc5fbXtHP7MJ+tZEbqueZXdjjZL8vQ/gsJVP0OnftTDw7j/Sbj1o0fM7Oo55/SFzQQ+2Ge5x/SD3DkvrnhJjmPM6wJJ4CSv81RHsX4XNIaWfJBnbVOiySHjJ4liztPGCeJSCkdxE8D5hypjPbP2hKQwXPdKacy823iIdQNMBzuQlnq3MOd+EpgmerYzs03ON5aIrZEoi8xwXmnzyApZjtgcA7VKaRmIyFLP3zHRB3i+mVykz/wFEst0DYaYEwKDQRC1X64WWZ4eVCbhoWgiJYLEajU2i3TXIqXTjF/ARHDawXstMhQymCtaLRJegDUXq+Z6DF2cUn6DmgncrPvA5qqPnZL+jRu2JoLBAIoFgefYO+eVrUmTvvTbF88w/qR1FriYcnRX+CjXwocn4u9curGx5CsBFMUXOplQfFMIKNIIu6S1fBdzHcIGRRe8kjQBFjsN+i/k5Ovb+ncAb70o3F0uMeiqFJ5lddFG324uqkiCXYqJ2i1fr4jnSDJ9jo2NJHnZvtbDgpW/6x5ASCjc6z5+dW3vyGISV0uD03qmzm2dnu1uX22PyzqvAYoRPUZva49i3Lb16fS4BO66KcZ7XmVZ5f7QDedbjmeXW/nbJYe3zRe2m63e2Xq/ViA43r6Oh9s1ivlvvdNpq9wJKSkpKSkpKSkpKSkv7/+g8R+3XcbavxPgAAAABJRU5ErkJggg==;" parent="1" vertex="1">
          <mxGeometry x="121.5" y="2571.5" width="98.5" height="98.5" as="geometry" />
        </mxCell>
        <mxCell id="7son08r-buFPJ92edeVw-3" value="&lt;p style=&quot;line-height: 140%; font-size: 30px;&quot;&gt;&lt;br&gt;&lt;/p&gt;" style="rounded=1;whiteSpace=wrap;html=1;shadow=0;glass=0;sketch=1;fillWeight=2;hachureGap=12;hachureAngle=-41;jiggle=1;curveFitting=1;simplification=0;strokeColor=none;strokeWidth=2;fontFamily=Architects Daughter;fontSource=https%3A%2F%2Ffonts.googleapis.com%2Fcss%3Ffamily%3DArchitects%2BDaughter;fontSize=30;fontColor=#666666;fillColor=#95D2F5;" parent="1" vertex="1">
          <mxGeometry x="110" y="2570" width="110" height="100" as="geometry" />
        </mxCell>
        <mxCell id="ceaoExXA7IqObVPHY2Fp-1" value="&lt;p style=&quot;line-height: 140%; font-size: 30px;&quot;&gt;&lt;font color=&quot;#333333&quot;&gt;&lt;b&gt;csd-counter&lt;/b&gt;&lt;/font&gt;&lt;/p&gt;" style="rounded=1;whiteSpace=wrap;html=1;shadow=0;glass=0;sketch=1;fillWeight=2;hachureGap=12;hachureAngle=-41;jiggle=1;curveFitting=1;simplification=0;strokeColor=#666666;strokeWidth=2;fontFamily=Architects Daughter;fontSource=https%3A%2F%2Ffonts.googleapis.com%2Fcss%3Ffamily%3DArchitects%2BDaughter;fontSize=30;fontColor=#666666;fillColor=#95D2F5;" vertex="1" parent="1">
          <mxGeometry x="542.71" y="3280" width="330" height="140" as="geometry" />
        </mxCell>
        <mxCell id="ceaoExXA7IqObVPHY2Fp-2" value="" style="edgeStyle=orthogonalEdgeStyle;rounded=0;sketch=1;hachureGap=4;jiggle=2;curveFitting=1;orthogonalLoop=1;jettySize=auto;html=1;fontFamily=Architects Daughter;fontSource=https%3A%2F%2Ffonts.googleapis.com%2Fcss%3Ffamily%3DArchitects%2BDaughter;fontSize=16;strokeColor=#FF0000;" edge="1" parent="1">
          <mxGeometry relative="1" as="geometry">
            <mxPoint x="690" y="3120" as="sourcePoint" />
            <mxPoint x="690" y="3280" as="targetPoint" />
            <Array as="points">
              <mxPoint x="691" y="3130" />
              <mxPoint x="690" y="3130" />
            </Array>
          </mxGeometry>
        </mxCell>
        <mxCell id="ceaoExXA7IqObVPHY2Fp-3" value="" style="edgeStyle=orthogonalEdgeStyle;rounded=0;sketch=1;hachureGap=4;jiggle=2;curveFitting=1;orthogonalLoop=1;jettySize=auto;html=1;fontFamily=Architects Daughter;fontSource=https%3A%2F%2Ffonts.googleapis.com%2Fcss%3Ffamily%3DArchitects%2BDaughter;fontSize=16;endArrow=none;endFill=0;startArrow=classic;startFill=1;strokeColor=#FF3333;" edge="1" parent="1">
          <mxGeometry relative="1" as="geometry">
            <mxPoint x="714.5" y="3120" as="sourcePoint" />
            <mxPoint x="715" y="3280" as="targetPoint" />
            <Array as="points">
              <mxPoint x="714.5" y="3120" />
            </Array>
          </mxGeometry>
        </mxCell>
        <mxCell id="ceaoExXA7IqObVPHY2Fp-4" value="统一计数中心" style="text;html=1;strokeColor=none;fillColor=none;align=center;verticalAlign=middle;whiteSpace=wrap;rounded=0;sketch=1;fontSize=30;fontColor=#FF66FF;" vertex="1" parent="1">
          <mxGeometry x="602.71" y="3370" width="210" height="50" as="geometry" />
        </mxCell>
        <mxCell id="ceaoExXA7IqObVPHY2Fp-5" value="&lt;font color=&quot;#ff6666&quot;&gt;计数&lt;br&gt;请求&lt;/font&gt;" style="text;html=1;strokeColor=none;fillColor=none;align=center;verticalAlign=middle;whiteSpace=wrap;rounded=0;sketch=1;fontSize=30;fontColor=#4D4D4D;" vertex="1" parent="1">
          <mxGeometry x="560.0000000000001" y="3180" width="175.42" height="50" as="geometry" />
        </mxCell>
        <mxCell id="ceaoExXA7IqObVPHY2Fp-6" value="&lt;font color=&quot;#ff6666&quot;&gt;返回&lt;br&gt;结果&lt;/font&gt;" style="text;html=1;strokeColor=none;fillColor=none;align=center;verticalAlign=middle;whiteSpace=wrap;rounded=0;sketch=1;fontSize=30;fontColor=#4D4D4D;" vertex="1" parent="1">
          <mxGeometry x="667.3000000000001" y="3180" width="175.42" height="50" as="geometry" />
        </mxCell>
        <mxCell id="ceaoExXA7IqObVPHY2Fp-9" value="&lt;p style=&quot;line-height: 140%; font-size: 30px;&quot;&gt;&lt;br&gt;&lt;/p&gt;" style="rounded=1;whiteSpace=wrap;html=1;shadow=0;glass=0;sketch=1;fillWeight=2;hachureGap=12;hachureAngle=-41;jiggle=1;curveFitting=1;simplification=0;strokeColor=none;strokeWidth=2;fontFamily=Architects Daughter;fontSource=https%3A%2F%2Ffonts.googleapis.com%2Fcss%3Ffamily%3DArchitects%2BDaughter;fontSize=30;fontColor=#666666;fillColor=#95D2F5;" vertex="1" parent="1">
          <mxGeometry x="120" y="2580" width="110" height="100" as="geometry" />
        </mxCell>
        <mxCell id="ceaoExXA7IqObVPHY2Fp-10" value="" style="shape=image;verticalLabelPosition=bottom;labelBackgroundColor=default;verticalAlign=top;aspect=fixed;imageAspect=0;image=data:image/png,iVBORw0KGgoAAAANSUhEUgAAAOEAAADhCAMAAAAJbSJIAAAAYFBMVEX/////Rz7/RTz/4N//NSn/OC3/3dz/NCj/OzH/4d//PjT/LyL/QTf/cmz/TEP/SUD/Vk7/m5f/r6z/gXz/YFn/6+r/d3H/c23/y8n/uLX/l5P/0c//kIv/UUn/wL7/k4/7pk/6AAAHZklEQVR4nO2dB3qrOhCFbRwCxr0mbsn+d/lATnF8gZGm6vHpLGDg8IsZgdpolJSUlJSUlJSUlJSUlMSk6Xa3X67Wi8279Z04vW8W69Vyv9tOmAKe1kU5z2rNqzy/HpiiYnW4vuTV/XbKYn1iiHhZ5dn4R1k1OzMExes8qx5vJ19eqBE/Zw8BncqbHcbDrXy6m2z2SQt5zMf/aF5ytf9QTcvnx10rP1JCLp4f2f25Fa9c9xyk16LFYN2oFviQb60Ga4svFhZfX1oN1hbfsCHbCVpZ7DSIp9ht0MJij0GsxT6D+hZ7DeIs9hvUTjcdSYZiETKoSxEgiLEIG9SkCBIMt9hVJmwoehB0FgOKhg9BZ1GFohdBZ9Gb4tHTYNPzlbf4mnsarC16duA+W/qinRbFG6o3wUa5Vzf8MvOPKG/R8x381sznY2oZFFK4oQY00fvdLOGYp4A2eg8qmG6CmqhTDn/130JjClIMJdjczBoKOilCY8pRDCdYq4A+z7feleLRoki6CUwyXyq3QNjdHBFVhCKK4Hg83wFx96iwAu8i4h2838keCBxYK34DM1NEEvSoFytkYGaKWIL1fayA0GtsZNZ0g0sy99uAysUClWmYLRIMjufQB8amQsdma6gUg+NqA0R/D+20/bHIkm7QScYpB8fH0K+4s8jQUEkE63YEXuBKaKYcFGkEx9UVvMIh6PPwX4tEijSC9Qeix8DYBtMzfbBIokgkOC6hPON0wxcMZ5GQUakE5zevyxzaRulCLKIbKtVgVnoO3k6oF0JaJBt8mfpeakIqGViLZIN5wNg02SIi3VCTTJBBC4qqBFksBlJUJugsqqYbepJBzA/RpGhA0FlUo2hC0FlUomhE0FlUoWhG0FlUKBrqZeLJIvXyYEMlN1EKQWdRmKIxQRaLvRQNk8yDRcF0Y5pkHiyKUYyCoLMoRDESgs6iCMVoCDqLAhQjIugssheNCMrEk0XmJx4ZQWeRSvHPT8boCLJYfJglEVWSebBIfu7fFCNsol8WmShGStBZZHl7oiXoLDKU/ogJOovU2ys/qKMi4LQuqkUqRapBWYLOIvEtokn0HfyxSKRIMihP0Fk0o6hC0Fk0oqhE0M6iokGbhqrWRL8sqlNUJegsKlNUJugsqlJUJ+gsKlI0IOgsqlE0IegsKlE0IugsqlA0I6hl0dSgRkM1bKJfFoUpGhN0FkUpmhN0FgUpRkCwkRzFKAg2kqIYCcFGMhSjIdhIgmJEBBvxW4zMIL/F6AxyW4zQIG+6iSrJ/IqPYpQEG3FRjJRgIx6K0RJsxEExYoKNJhXVYlZFbXA0+qCt7RuPyw9rC/2aEAdAmyHUqBlOiYPgzmLhvQJNX4PPpdRpDD8WpScjYDVl7NNE2VAH3y8d/LcFdSrXPxZjo8j/pyYyi4P/T8NVJp4sxlP6B/+/VIagsxhH6R/8uIUcQWfRnuLgxw+5C32LRdu6qDEbw9Qifme8IIsK2zF3aPDzaQY/J0q2TDxZtCgag5+bSF35EmxRm+Lg5wjLF/oWi5qnogx+rr4FQWdRi+Lg18zodNU6LGp04DQLfYtF+aIx+PWH5JXA1QdxlFj4XaRvHjFhWi4tJPoi5SnHY5I7MoSDoIsTK0W+vSxs9kcFRd/dZMoYS4AitdD/bVq8O6WwiLzVwNPANXVInJ0iL0H3yOKiyE2wEZkiZweOTLC1SUVUNHgKfYvFWEq/3H4ykVCU3E8mitIvuxW81Qb3nAaBhmROkb5DLDSfYiq+y22/QYVUYEpRqkz8Fb30oy1qbTtmlm70th0zKv2aG8eZUNTdOM6AouKZL07kohFKUX9/UeWiYbF5o+q7aLNDrCJF+hc97qOGc5fbXtHP7MJ+tZEbqueZXdjjZL8vQ/gsJVP0OnftTDw7j/Sbj1o0fM7Oo55/SFzQQ+2Ge5x/SD3DkvrnhJjmPM6wJJ4CSv81RHsX4XNIaWfJBnbVOiySHjJ4liztPGCeJSCkdxE8D5hypjPbP2hKQwXPdKacy823iIdQNMBzuQlnq3MOd+EpgmerYzs03ON5aIrZEoi8xwXmnzyApZjtgcA7VKaRmIyFLP3zHRB3i+mVykz/wFEst0DYaYEwKDQRC1X64WWZ4eVCbhoWgiJYLEajU2i3TXIqXTjF/ARHDawXstMhQymCtaLRJegDUXq+Z6DF2cUn6DmgncrPvA5qqPnZL+jRu2JoLBAIoFgefYO+eVrUmTvvTbF88w/qR1FriYcnRX+CjXwocn4u9curGx5CsBFMUXOplQfFMIKNIIu6S1fBdzHcIGRRe8kjQBFjsN+i/k5Ovb+ncAb70o3F0uMeiqFJ5lddFG324uqkiCXYqJ2i1fr4jnSDJ9jo2NJHnZvtbDgpW/6x5ASCjc6z5+dW3vyGISV0uD03qmzm2dnu1uX22PyzqvAYoRPUZva49i3Lb16fS4BO66KcZ7XmVZ5f7QDedbjmeXW/nbJYe3zRe2m63e2Xq/ViA43r6Oh9s1ivlvvdNpq9wJKSkpKSkpKSkpKSkv7/+g8R+3XcbavxPgAAAABJRU5ErkJggg==;" vertex="1" parent="1">
          <mxGeometry x="1241.5" y="2556.5" width="98.5" height="98.5" as="geometry" />
        </mxCell>
        <mxCell id="ceaoExXA7IqObVPHY2Fp-11" value="&lt;p style=&quot;line-height: 140%; font-size: 30px;&quot;&gt;&lt;br&gt;&lt;/p&gt;" style="rounded=1;whiteSpace=wrap;html=1;shadow=0;glass=0;sketch=1;fillWeight=2;hachureGap=12;hachureAngle=-41;jiggle=1;curveFitting=1;simplification=0;strokeColor=none;strokeWidth=2;fontFamily=Architects Daughter;fontSource=https%3A%2F%2Ffonts.googleapis.com%2Fcss%3Ffamily%3DArchitects%2BDaughter;fontSize=30;fontColor=#666666;fillColor=#95D2F5;" vertex="1" parent="1">
          <mxGeometry x="1230" y="2555" width="110" height="100" as="geometry" />
        </mxCell>
        <mxCell id="ceaoExXA7IqObVPHY2Fp-12" value="&lt;p style=&quot;line-height: 140%; font-size: 30px;&quot;&gt;&lt;br&gt;&lt;/p&gt;" style="rounded=1;whiteSpace=wrap;html=1;shadow=0;glass=0;sketch=1;fillWeight=2;hachureGap=12;hachureAngle=-41;jiggle=1;curveFitting=1;simplification=0;strokeColor=none;strokeWidth=2;fontFamily=Architects Daughter;fontSource=https%3A%2F%2Ffonts.googleapis.com%2Fcss%3Ffamily%3DArchitects%2BDaughter;fontSize=30;fontColor=#666666;fillColor=#95D2F5;" vertex="1" parent="1">
          <mxGeometry x="1240" y="2565" width="110" height="100" as="geometry" />
        </mxCell>
      </root>
    </mxGraphModel>
  </diagram>
</mxfile>
